<svg xmlns="http://www.w3.org/2000/svg" viewBox="0 0 513.21 1006"><defs><style>.cls-1{fill:#ddc4a7;stroke:#c4a48a;}.cls-1,.cls-7{stroke-miterlimit:10;}.cls-2{fill:#f10d00;}.cls-3{fill:#dcdfe7;}.cls-4{fill:#fefdff;}.cls-5{fill:#fff;}.cls-6{fill:#a1a5b4;}.cls-7{fill:none;stroke:#a1a5b4;stroke-width:2px;}.cls-8{fill:#ade4ff;}.cls-9{fill:#000309;}.cls-10{font-size:12.19px;font-family:MyriadPro-Regular, Myriad Pro;}.cls-11{fill:#d8b695;}.cls-12{fill:#c16dff;}.cls-13{fill:#0b9f00;}.cls-14{fill:#020202;}</style></defs><title>dickpic</title><g id="Layer_2" data-name="Layer 2"><g id="Layer_1-2" data-name="Layer 1"><g id="hånd_bag"><path class="cls-1" d="M400.12,725.5c18,86-78,105-78,105v175h-211v-176c-47-20-55-99-55-99l1-110c4-28-30-86-30-86-20-21-26-55-26-55,22-38,82,5,82,5Z"/><path class="cls-2" d="M1.12,484.14s42,6.36,26,51.36C26.34,536.73-6.39,488.57,1.12,484.14Z"/></g><g id="iphone_omrids"><rect class="cls-3" x="79.62" width="365" height="741" rx="46.49" ry="46.49"/><rect class="cls-4" x="444.12" y="145" width="3" height="47.5"/><rect class="cls-4" x="77.62" y="90" width="2" height="28"/><rect class="cls-5" x="75.62" y="148" width="4" height="46"/><rect class="cls-5" x="75.62" y="206" width="4" height="46"/><circle class="cls-6" cx="218.12" cy="43.5" r="5.5"/><circle class="cls-7" cx="267.62" cy="696" r="23"/><rect class="cls-6" x="242.62" y="42" width="47" height="5" rx="2.5" ry="2.5"/><circle class="cls-6" cx="267.62" cy="22" r="4"/></g><g id="iphonebillede"><rect class="cls-8" x="103.12" y="85.81" width="324.5" height="571.68"/><polygon class="cls-9" points="381.19 89.36 381.19 98.5 406.7 98.5 406.7 95.46 409.76 95.46 409.76 92.41 405.68 92.41 405.68 89.36 381.19 89.36"/><text class="cls-10" transform="translate(256.91 95.42)">21:37</text><text class="cls-10" transform="translate(139.58 95.2)">TDC 4G</text><ellipse class="cls-11" cx="268.43" cy="239.14" rx="73.98" ry="73.62"/><rect class="cls-11" x="256.69" y="301.59" width="23.47" height="200.04" rx="11.5" ry="11.5"/><path class="cls-11" d="M195.85,658l57.68-172.19a11.78,11.78,0,0,1,14.84-7.39h0a11.7,11.7,0,0,1,7.42,14.77L220.62,657.93Z"/><path class="cls-11" d="M339.33,657.9,284.65,494.67a11.78,11.78,0,0,0-14.84-7.39h0a11.7,11.7,0,0,0-7.42,14.77L314.61,658Z"/><path class="cls-12" d="M342.61,466.32s47.65-5.76,12.23,28.13c0,0-18.82,13.15-35.07,13.81,0,0-31.33,3.8-36.35.32a29.58,29.58,0,0,1-7.43-7.17s4-2.91,6.71-4.42,9.74-.13,9.74-.13.94-5.9-7.24-11.07l5.47-5.61S321.25,478.38,342.61,466.32Z"/><path class="cls-13" d="M276.63,502.31l5.78-2.91s-.19-5.84,13.16-1.45c0,0,2-5.11-9.22-13.14,0,0,5.11-.73,6.25-10.94l-4.22,5.83s-14-2.2-21,9.47c0,0-11,.72-2,6.56,0,0-.29,4,1.65,5.84s18,11.69,19.4,10.23S276.63,502.31,276.63,502.31Z"/><polyline class="cls-11" points="256.69 340.17 103.63 380.79 103.63 398.05 256.69 357.44"/><path class="cls-11" d="M280.16,340.17s129.6,34.52,129.6,41.63-129.6,92.06-129.6,92.06v-20l102-68-102-27.42"/><ellipse class="cls-5" cx="243.43" cy="225.94" rx="17.35" ry="16.75"/><ellipse class="cls-5" cx="295.47" cy="225.94" rx="17.35" ry="16.75"/><ellipse class="cls-14" cx="243.43" cy="225.94" rx="8.94" ry="8.63"/><ellipse class="cls-14" cx="295.47" cy="225.94" rx="8.94" ry="8.63"/><path d="M245.47,268.08c.62-3,56-10.14,57.14-9.14S285.27,275.19,274,276.2C265.54,277.47,245.16,269.55,245.47,268.08Z"/></g><g id="hånd"><path class="cls-1" d="M372.12,650.5c-7.25-30.45,19-42,19-42-19,2-31-28-31-28-15-35,31-53,31-53-15,10-25-30-25-30-18-33,31-47,31-47-45-18-24-60-15-67s88-42,88-42c30-9,37,25,37,25,22,39-28,52-28,52,18,6,19,28,19,28,20,34-29,50-29,50,22,4,24,24,24,24,23,45-35,58-35,58,17-3,26,21,26,21,9,29-10,41-10,41l-39,16S382.12,692.5,372.12,650.5Z"/><rect class="cls-2" x="364.34" y="464.14" width="43.61" height="50" rx="12" ry="12" transform="translate(112.49 1049.03) rotate(-115.66)"/><rect class="cls-2" x="379.75" y="385.63" width="45.64" height="53.46" rx="12" ry="12" transform="translate(205.24 953.8) rotate(-115.66)"/><rect class="cls-2" x="364.34" y="540.14" width="43.61" height="50" rx="12" ry="12" transform="translate(43.99 1157.95) rotate(-115.66)"/><rect class="cls-2" x="382.32" y="615.18" width="39.65" height="47.46" rx="12" ry="12" transform="translate(0.42 1278.08) rotate(-115.66)"/></g></g></g></svg>