<svg xmlns="http://www.w3.org/2000/svg" xmlns:xlink="http://www.w3.org/1999/xlink" viewBox="0 0 512.71 1005.5"><defs><style>.cls-1,.cls-43{fill:red;}.cls-1{stroke:red;}.cls-1,.cls-12,.cls-24,.cls-25,.cls-26,.cls-28,.cls-29,.cls-30,.cls-32,.cls-39,.cls-40,.cls-8{stroke-miterlimit:10;}.cls-2{fill:#a67c52;}.cls-3{fill:#ceb699;}.cls-4{fill:#dcdfe7;}.cls-5{fill:#fefdff;}.cls-6{fill:#fff;}.cls-7{fill:#a1a5b4;}.cls-16,.cls-24,.cls-25,.cls-26,.cls-28,.cls-30,.cls-32,.cls-39,.cls-40,.cls-8{fill:none;}.cls-8{stroke:#a1a5b4;}.cls-28,.cls-30,.cls-8{stroke-width:2px;}.cls-9{fill:#ade4ff;}.cls-10{fill:#000309;}.cls-11,.cls-14,.cls-17,.cls-18,.cls-26,.cls-31,.cls-32,.cls-34,.cls-35,.cls-36,.cls-37,.cls-38,.cls-39,.cls-41{isolation:isolate;}.cls-11{font-size:12.19px;}.cls-11,.cls-14,.cls-31,.cls-32,.cls-34,.cls-35,.cls-36,.cls-37,.cls-38,.cls-39{font-family:ArialMT, Arial;}.cls-12{fill:#a5e5ff;}.cls-12,.cls-39,.cls-40{stroke:#000;}.cls-13{fill:#0073d6;}.cls-14{font-size:12.16px;}.cls-15{fill:#cecece;}.cls-18,.cls-26,.cls-31,.cls-32{font-size:18px;}.cls-18,.cls-41{font-family:SegoeUISymbol, Segoe UI Symbol;}.cls-19{letter-spacing:-0.01em;}.cls-20{letter-spacing:-0.02em;}.cls-21{letter-spacing:-0.01em;}.cls-22{letter-spacing:-0.11em;}.cls-23{fill:#efefef;}.cls-24,.cls-25,.cls-26,.cls-29{stroke:#3eb2e5;}.cls-24,.cls-25,.cls-30{stroke-linecap:round;}.cls-24{stroke-width:4px;}.cls-26{font-family:BellMT, Bell MT;}.cls-27{fill:#989b9b;}.cls-28{stroke:#cecece;}.cls-29{fill:#3eb2e5;}.cls-30{stroke:#fff;}.cls-31{fill:#d3dadd;}.cls-32{stroke:#d3dadd;}.cls-33{fill:#c3c7c9;}.cls-34,.cls-35,.cls-36,.cls-37{font-size:21px;}.cls-35{letter-spacing:-0.02em;}.cls-36{letter-spacing:-0.04em;}.cls-37{letter-spacing:-0.06em;}.cls-38,.cls-39,.cls-41{font-size:17px;}.cls-42{letter-spacing:-0.03em;}</style><symbol id="Favorite" data-name="Favorite" viewBox="0 0 20.97 20.14"><path class="cls-1" d="M15.07.5c.28,0,.58,0,.9,0,2,.19,4.22,2,4.5,5.42V7.1c-.26,3.29-2.74,7.34-10,12.42C3.24,14.44.76,10.39.5,7.1V6C.78,2.53,3,.74,5,.55c.32,0,.62,0,.9,0,2.26,0,3.35,1,4.59,2.46C11.73,1.48,12.81.5,15.07.5m0,2.18c-1.3,0-1.84.4-2.91,1.68l-1.67,2-1.67-2C7.74,3.08,7.2,2.68,5.9,2.68c-.21,0-.45,0-.69,0-.9.09-2.31,1-2.52,3.34V7c.27,2.87,2.89,6.17,7.8,9.82,4.91-3.65,7.54-7,7.8-9.82v-1c-.21-2.29-1.62-3.25-2.52-3.34-.25,0-.48,0-.69,0Z"/></symbol><symbol id="Photo" data-name="Photo" viewBox="0 0 66 52.26"><path d="M57.91,8.45,53.79,2.67A6.72,6.72,0,0,0,48.59,0H42.5a6.72,6.72,0,0,0-5.2,2.67l-4,5.58H10a10,10,0,0,0-10,10v24a10,10,0,0,0,10,10H56a10,10,0,0,0,10-10v-24A10,10,0,0,0,57.91,8.45ZM41.37,5.58a1.72,1.72,0,0,1,.52-.38A1.82,1.82,0,0,1,42.5,5h6.09a1.78,1.78,0,0,1,.61.2,1.86,1.86,0,0,1,.52.38l1.91,2.68H39.46ZM31,44.17A14.24,14.24,0,1,1,45.22,29.93,14.26,14.26,0,0,1,31,44.17ZM6,42.26v-24a4.05,4.05,0,0,1,4-4h6.69a21.2,21.2,0,0,0,.71,32H10A4.05,4.05,0,0,1,6,42.26Zm54,0a4.05,4.05,0,0,1-4,4H44.56a21.2,21.2,0,0,0,.71-32H56a4.05,4.05,0,0,1,4,4Z"/></symbol></defs><title>Asset 1scene1</title><g id="Layer_2" data-name="Layer 2"><g id="Layer_1-2" data-name="Layer 1"><g id="Layer_1-3" data-name="Layer 1"><path class="cls-2" d="M400.12,725.5c18,86-78,105-78,105v175h-211v-176c-47-20-55-99-55-99l1-110c4-28-30-86-30-86-20-21-26-55-26-55,22-38,82,5,82,5Z"/><path class="cls-3" d="M1.12,484.1s42,6.4,26,51.4C26.32,536.7-6.38,488.6,1.12,484.1Z"/><path class="cls-4" d="M398.12,741h-272a46.6,46.6,0,0,1-46.5-46.5V46.5A46.6,46.6,0,0,1,126.12,0h272a46.6,46.6,0,0,1,46.5,46.5v648A46.6,46.6,0,0,1,398.12,741Z"/><rect class="cls-5" x="444.12" y="145" width="3" height="47.5"/><rect class="cls-5" x="77.62" y="90" width="2" height="28"/><rect class="cls-6" x="75.62" y="148" width="4" height="46"/><rect class="cls-6" x="75.62" y="206" width="4" height="46"/><circle class="cls-7" cx="218.12" cy="43.5" r="5.5"/><circle class="cls-8" cx="267.62" cy="696" r="23"/><path class="cls-7" d="M287.12,47h-42a2.48,2.48,0,0,1-2.5-2.5h0a2.48,2.48,0,0,1,2.5-2.5h42a2.48,2.48,0,0,1,2.5,2.5h0A2.48,2.48,0,0,1,287.12,47Z"/><circle class="cls-7" cx="267.62" cy="22" r="4"/><rect class="cls-9" x="103.12" y="85.8" width="324.5" height="571.7"/><polygon class="cls-10" points="381.22 89.4 381.22 98.5 406.72 98.5 406.72 95.5 409.72 95.5 409.72 92.4 405.72 92.4 405.72 89.4 381.22 89.4"/><text class="cls-11" transform="translate(256.91 95.42)">21:37</text><text class="cls-11" transform="translate(139.58 95.2)">TDC 4G</text><path class="cls-12" d="M425.62,657h-322V87.5h322Z"/><path class="cls-13" d="M426.62,653.9h-322V87h322Zm1-567.9h-324V654.9h324Z"/><text class="cls-14" transform="translate(258.66 98.61)">21:37</text><text class="cls-14" transform="translate(141.88 99.39)">TDC 4G</text><polygon class="cls-10" points="392.12 90.5 392.12 99.6 417.42 99.6 417.42 96.6 420.52 96.6 420.52 93.5 416.42 93.5 416.42 90.5 392.12 90.5"/></g><rect class="cls-6" x="102.62" y="86" width="325" height="571"/><path class="cls-15" d="M130.62,280h175a12,12,0,0,0,12-12V175a12,12,0,0,0-12-12h-175a12,12,0,0,0-12,12v93A12,12,0,0,0,130.62,280Z"/><rect class="cls-16" x="126.62" y="170" width="183" height="119"/><g class="cls-17"><text class="cls-18" transform="translate(126.62 183.32)">Jeg sæt<tspan class="cls-19" x="60.08" y="0">t</tspan><tspan x="66.04" y="0">er vir</tspan><tspan class="cls-20" x="105.88" y="0">k</tspan><tspan x="114.47" y="0">elig pris </tspan></text><text class="cls-18" transform="translate(126.62 204.92)"><tspan class="cls-21">p</tspan><tspan x="10.34" y="0">å, at du ik</tspan><tspan class="cls-20" x="87.55" y="0">k</tspan><tspan x="96.13" y="0">e vide</tspan><tspan class="cls-21" x="143.47" y="0">r</tspan><tspan x="149.49" y="0">e- </tspan></text><text class="cls-18" transform="translate(126.62 226.52)">sender mit billede. </text><text class="cls-18" transform="translate(126.62 248.12)"><tspan class="cls-22">T</tspan><tspan x="7.52" y="0">ak! </tspan></text><text class="cls-18" transform="translate(126.62 269.72)">Mås<tspan class="cls-20" x="32.96" y="0">k</tspan><tspan x="41.55" y="0">e sender jeg et til </tspan></text></g><path class="cls-15" d="M114.62,280a10.93,10.93,0,0,0,4.4-9.1l2.3,4.6C121.22,275.4,121.62,278,114.62,280Z"/><rect class="cls-23" x="102.62" y="86" width="325" height="69"/><text class="cls-14" transform="translate(258.66 107.61)">21:37</text><text class="cls-14" transform="translate(141.88 107.39)">TDC 4G</text><polygon class="cls-10" points="381.12 98.5 381.12 107.6 406.42 107.6 406.42 104.6 409.52 104.6 409.52 101.5 405.42 101.5 405.42 98.5 381.12 98.5"/><rect class="cls-16" x="172.62" y="124.5" width="172.5" height="26.5"/><text class="cls-18" transform="translate(172.62 137.82)">Ham den flot<tspan class="cls-19" x="104.14" y="0">t</tspan><tspan x="110.1" y="0">e </tspan></text><polyline class="cls-24" points="128.62 124 121.62 132 128.62 140"/><circle class="cls-25" cx="384.42" cy="131.8" r="10.8"/><rect class="cls-16" x="382.12" y="126.5" width="6.5" height="15.5"/><text class="cls-26" transform="translate(382.12 138.52)">i</text><rect class="cls-27" x="102.12" y="439.5" width="324" height="217.5"/><path class="cls-28" d="M237.12,400.5h139s17,1,18,19c0,0,1,10-19,16h-138s-13-6-14-18S237.12,400.5,237.12,400.5Z"/><ellipse class="cls-29" cx="376.12" cy="418" rx="12" ry="11.5"/><polyline class="cls-30" points="371.82 417.2 376.42 410 380.82 416.8"/><line class="cls-30" x1="376.62" y1="425" x2="376.62" y2="411"/><rect class="cls-16" x="238.62" y="409.3" width="80.7" height="20.3"/><text class="cls-31" transform="translate(238.62 422.22)">Skriv</text><text class="cls-32" transform="translate(238.62 422.22)">Skriv</text><path class="cls-6" d="M122.12,451.5h8s3-1,3,4v30s1,3-3,4h-8Z"/><path class="cls-6" d="M122.12,451.5h-8s-3-1-3,4v30s-1,3,3,4h8Z"/><path class="cls-6" d="M149.12,451.5h8s3-1,3,4v30s1,3-3,4h-8Z"/><path class="cls-6" d="M149.12,451.5h-8s-3-1-3,4v30s-1,3,3,4h8Z"/><path class="cls-6" d="M286.12,451.5h8s3-1,3,4v30s1,3-3,4h-8Z"/><path class="cls-6" d="M286.12,451.5h-8s-3-1-3,4v30s-1,3,3,4h8Z"/><path class="cls-6" d="M258.12,451.5h8s3-1,3,4v30s1,3-3,4h-8Z"/><path class="cls-6" d="M258.12,451.5h-8s-3-1-3,4v30s-1,3,3,4h8Z"/><path class="cls-6" d="M231.12,451.5h8s3-1,3,4v30s1,3-3,4h-8Z"/><path class="cls-6" d="M231.12,451.5h-8s-3-1-3,4v30s-1,3,3,4h8Z"/><path class="cls-6" d="M204.12,451.5h8s3-1,3,4v30s1,3-3,4h-8Z"/><path class="cls-6" d="M204.12,451.5h-8s-3-1-3,4v30s-1,3,3,4h8Z"/><path class="cls-6" d="M176.12,451.5h8s3-1,3,4v30s1,3-3,4h-8Z"/><path class="cls-6" d="M176.12,451.5h-8s-3-1-3,4v30s-1,3,3,4h8Z"/><path class="cls-6" d="M395.12,451.5h8s3-1,3,4v30s1,3-3,4h-8Z"/><path class="cls-6" d="M395.12,451.5h-8s-3-1-3,4v30s-1,3,3,4h8Z"/><path class="cls-6" d="M368.12,451.5h8s3-1,3,4v30s1,3-3,4h-8Z"/><path class="cls-6" d="M368.12,451.5h-8s-3-1-3,4v30s-1,3,3,4h8Z"/><path class="cls-6" d="M341.12,451.5h8s3-1,3,4v30s1,3-3,4h-8Z"/><path class="cls-6" d="M341.12,451.5h-8s-3-1-3,4v30s-1,3,3,4h8Z"/><path class="cls-6" d="M313.12,451.5h8s3-1,3,4v30s1,3-3,4h-8Z"/><path class="cls-6" d="M313.12,451.5h-8s-3-1-3,4v30s-1,3,3,4h8Z"/><path class="cls-6" d="M286.12,505.5h8s3-1,3,4v30s1,3-3,4h-8Z"/><path class="cls-6" d="M286.12,505.5h-8s-3-1-3,4v30s-1,3,3,4h8Z"/><path class="cls-6" d="M258.12,505.5h8s3-1,3,4v30s1,3-3,4h-8Z"/><path class="cls-6" d="M258.12,505.5h-8s-3-1-3,4v30s-1,3,3,4h8Z"/><path class="cls-6" d="M231.12,505.5h8s3-1,3,4v30s1,3-3,4h-8Z"/><path class="cls-6" d="M231.12,505.5h-8s-3-1-3,4v30s-1,3,3,4h8Z"/><path class="cls-6" d="M204.12,505.5h8s3-1,3,4v30s1,3-3,4h-8Z"/><path class="cls-6" d="M204.12,505.5h-8s-3-1-3,4v30s-1,3,3,4h8Z"/><path class="cls-6" d="M176.12,505.5h8s3-1,3,4v30s1,3-3,4h-8Z"/><path class="cls-6" d="M176.12,505.5h-8s-3-1-3,4v30s-1,3,3,4h8Z"/><path class="cls-6" d="M149.12,505.5h8s3-1,3,4v30s1,3-3,4h-8Z"/><path class="cls-6" d="M149.12,505.5h-8s-3-1-3,4v30s-1,3,3,4h8Z"/><path class="cls-6" d="M122.12,505.5h8s3-1,3,4v30s1,3-3,4h-8Z"/><path class="cls-6" d="M122.12,505.5h-8s-3-1-3,4v30s-1,3,3,4h8Z"/><path class="cls-6" d="M395.12,505.5h8s3-1,3,4v30s1,3-3,4h-8Z"/><path class="cls-6" d="M395.12,505.5h-8s-3-1-3,4v30s-1,3,3,4h8Z"/><path class="cls-6" d="M368.12,505.5h8s3-1,3,4v30s1,3-3,4h-8Z"/><path class="cls-6" d="M368.12,505.5h-8s-3-1-3,4v30s-1,3,3,4h8Z"/><path class="cls-6" d="M341.12,505.5h8s3-1,3,4v30s1,3-3,4h-8Z"/><path class="cls-6" d="M341.12,505.5h-8s-3-1-3,4v30s-1,3,3,4h8Z"/><path class="cls-6" d="M313.12,505.5h8s3-1,3,4v30s1,3-3,4h-8Z"/><path class="cls-6" d="M313.12,505.5h-8s-3-1-3,4v30s-1,3,3,4h8Z"/><path class="cls-6" d="M312.62,558h8s3-1,3,4v30s1,3-3,4h-8Z"/><path class="cls-6" d="M312.62,558h-8s-3-1-3,4v30s-1,3,3,4h8Z"/><path class="cls-6" d="M286.62,558h8s3-1,3,4v30s1,3-3,4h-8Z"/><path class="cls-6" d="M286.62,558h-8s-3-1-3,4v30s-1,3,3,4h8Z"/><path class="cls-6" d="M258.62,558h8s3-1,3,4v30s1,3-3,4h-8Z"/><path class="cls-6" d="M258.62,558h-8s-3-1-3,4v30s-1,3,3,4h8Z"/><path class="cls-6" d="M231.62,558h8s3-1,3,4v30s1,3-3,4h-8Z"/><path class="cls-6" d="M231.62,558h-8s-3-1-3,4v30s-1,3,3,4h8Z"/><path class="cls-6" d="M203.62,558h8s3-1,3,4v30s1,3-3,4h-8Z"/><path class="cls-6" d="M203.62,558h-8s-3-1-3,4v30s-1,3,3,4h8Z"/><path class="cls-6" d="M176.62,558h8s3-1,3,4v30s1,3-3,4h-8Z"/><path class="cls-6" d="M176.62,558h-8s-3-1-3,4v30s-1,3,3,4h8Z"/><path class="cls-6" d="M340.62,559h8s3-1,3,4v30s1,3-3,4h-8Z"/><path class="cls-6" d="M340.62,559h-8s-3-1-3,4v30s-1,3,3,4h8Z"/><path class="cls-6" d="M198.62,612h8s3-1,3,4v30s1,3-3,4h-8Z"/><path class="cls-6" d="M198.62,612h-8s-3-1-3,4v30s-1,3,3,4h8Z"/><path class="cls-33" d="M125.62,612h-11s-4,0-4,5v27a6.21,6.21,0,0,0,5,6h10Z"/><path class="cls-33" d="M125.62,612h11s4,0,4,5v27a6.21,6.21,0,0,1-5,6h-10Z"/><path class="cls-33" d="M164.62,612h-11s-4,0-4,5v27a6.21,6.21,0,0,0,5,6h10Z"/><path class="cls-33" d="M164.62,612h11s4,0,4,5v27a6.21,6.21,0,0,1-5,6h-10Z"/><path class="cls-33" d="M389.62,559h-11.7s-4.3,0-4.3,5v27a6.25,6.25,0,0,0,5.3,6h10.7Z"/><path class="cls-33" d="M389.62,559h11.7s4.3,0,4.3,5v27a6.25,6.25,0,0,1-5.3,6h-10.7Z"/><path class="cls-33" d="M370.62,612h-28s-6-1-6,5v27s0,6,6,6h28Z"/><path class="cls-33" d="M370.62,612h29.6s6.4-1,6.4,5v27a6,6,0,0,1-6.4,6h-29.6Z"/><path class="cls-6" d="M271.62,612h-48s-8-2-8,6v24s-2,9,6,7h50Z"/><path class="cls-6" d="M271.62,612h48s8-2,8,6v24s2,9-6,7h-50Z"/><path class="cls-6" d="M125.62,559h-12s-3,1-3,4v27s-2,6,4,5h11Z"/><path class="cls-6" d="M123.62,559h15.1s3.8,1,3.8,4v27s2.5,6-5,5h-13.9Z"/><rect class="cls-16" x="113.92" y="462.7" width="19.7" height="22.3"/><text class="cls-34" transform="translate(113.95 477.7)">Q</text><rect class="cls-16" x="195.92" y="462.7" width="19.7" height="22.3"/><text class="cls-34" transform="translate(195.95 477.7)">R</text><rect class="cls-16" x="223.92" y="462.7" width="19.7" height="22.3"/><text class="cls-35" transform="translate(223.95 477.7)">T</text><rect class="cls-16" x="250.92" y="462.7" width="19.7" height="22.3"/><text class="cls-35" transform="translate(250.95 477.7)">Y</text><rect class="cls-16" x="278.92" y="461.7" width="19.7" height="22.3"/><text class="cls-34" transform="translate(278.95 476.7)">U</text><rect class="cls-16" x="303.92" y="461.7" width="19.7" height="22.3"/><text class="cls-34" transform="translate(303.95 476.7)"><tspan xml:space="preserve"> I</tspan></text><rect class="cls-16" x="332.92" y="461.7" width="19.7" height="22.3"/><text class="cls-34" transform="translate(332.95 476.7)">O</text><rect class="cls-16" x="360.92" y="461.7" width="19.7" height="22.3"/><text class="cls-35" transform="translate(360.95 476.7)">P</text><rect class="cls-16" x="387.92" y="462.7" width="19.7" height="22.3"/><text class="cls-34" transform="translate(387.95 477.7)">Å</text><rect class="cls-16" x="386.92" y="513.7" width="19.7" height="22.3"/><text class="cls-34" transform="translate(386.95 528.7)">Ø</text><rect class="cls-16" x="357.62" y="514.7" width="23" height="22.3"/><text class="cls-34" transform="translate(357.62 529.7)">Æ</text><rect class="cls-16" x="334.92" y="514.7" width="19.7" height="22.3"/><text class="cls-36" transform="translate(334.95 529.7)">L</text><rect class="cls-16" x="305.92" y="514.7" width="19.7" height="22.3"/><text class="cls-34" transform="translate(305.95 529.7)">K</text><rect class="cls-16" x="279.92" y="514.7" width="19.7" height="22.3"/><text class="cls-34" transform="translate(279.95 529.7)">J</text><rect class="cls-16" x="249.92" y="514.7" width="19.7" height="22.3"/><text class="cls-34" transform="translate(249.95 529.7)">H</text><rect class="cls-16" x="222.92" y="514.7" width="19.7" height="22.3"/><text class="cls-34" transform="translate(222.95 529.7)">G</text><rect class="cls-16" x="196.92" y="514.7" width="19.7" height="22.3"/><text class="cls-34" transform="translate(196.95 529.7)">F</text><rect class="cls-16" x="167.92" y="514.7" width="19.7" height="22.3"/><text class="cls-34" transform="translate(167.95 529.7)">D</text><rect class="cls-16" x="140.92" y="514.7" width="19.7" height="22.3"/><text class="cls-34" transform="translate(140.95 529.7)">S</text><rect class="cls-16" x="114.92" y="514.7" width="19.7" height="22.3"/><text class="cls-37" transform="translate(114.95 529.7)">A</text><rect class="cls-16" x="139.62" y="462.7" width="23" height="22.3"/><text class="cls-34" transform="translate(139.62 477.7)">W</text><rect class="cls-16" x="168.92" y="462.7" width="19.7" height="22.3"/><text class="cls-34" transform="translate(168.95 477.7)">E</text><rect class="cls-16" x="331.92" y="568.7" width="19.7" height="22.3"/><text class="cls-34" transform="translate(331.95 583.7)">M</text><rect class="cls-16" x="305.92" y="568.7" width="19.7" height="22.3"/><text class="cls-34" transform="translate(305.95 583.7)">N</text><rect class="cls-16" x="279.92" y="568.7" width="19.7" height="22.3"/><text class="cls-34" transform="translate(279.95 583.7)">B</text><rect class="cls-16" x="250.92" y="568.7" width="19.7" height="22.3"/><text class="cls-34" transform="translate(250.95 583.7)">V</text><rect class="cls-16" x="222.92" y="568.7" width="19.7" height="22.3"/><text class="cls-34" transform="translate(222.95 583.7)">C</text><rect class="cls-16" x="195.92" y="568.7" width="19.7" height="22.3"/><text class="cls-34" transform="translate(195.95 583.7)">X</text><rect class="cls-16" x="169.92" y="568.7" width="19.7" height="22.3"/><text class="cls-34" transform="translate(169.95 583.7)">Z</text><polygon points="127.62 569 136.62 579 131.62 579 131.62 584 127.62 584 127.62 569"/><polygon points="127.62 569 118.62 579 123.62 579 123.62 584 127.62 584 127.62 569"/><rect class="cls-16" x="111.82" y="624.3" width="29.5" height="20.3"/><text class="cls-38" transform="translate(111.78 636.5)">123</text><text class="cls-39" transform="translate(111.78 636.5)">123</text><path class="cls-40" d="M195.12,624.5a3.55,3.55,0,0,1,2-3,2.94,2.94,0,0,1,3,3v7a2,2,0,0,1-2,2,3.7,3.7,0,0,1-3-2Z"/><path class="cls-40" d="M192.12,629.5s0,7,6,7c0,0,4,1,5-7"/><line class="cls-40" x1="195.12" y1="639.5" x2="201.62" y2="639.5"/><line class="cls-40" x1="198.12" y1="639" x2="198.12" y2="637"/><rect class="cls-16" x="231.62" y="623" width="94" height="18.7"/><text class="cls-41" transform="translate(231.62 635.58)">Mellemrum</text><rect class="cls-16" x="350.62" y="622.7" width="43.7" height="18.7"/><text class="cls-41" transform="translate(350.62 635.25)"><tspan class="cls-42">R</tspan><tspan x="9.7" y="0">etur</tspan></text><circle class="cls-40" cx="163.62" cy="630" r="9.5"/><path class="cls-40" d="M157.62,631s6,3,12,0c0,0,0,6-6,6C163.62,637,158.62,637,157.62,631Z"/><circle cx="166.62" cy="628" r="1"/><circle cx="160.62" cy="628" r="1"/><path class="cls-2" d="M372.12,650.5c-7.3-30.5,19-42,19-42-19,2-31-28-31-28-15-35,31-53,31-53-15,10-25-30-25-30-18-33,31-47,31-47-45-18-24-60-15-67s88-42,88-42c30-9,37,25,37,25,22,39-28,52-28,52,18,6,19,28,19,28,20,34-29,50-29,50,22,4,24,24,24,24,23,45-35,58-35,58,17-3,26,21,26,21,9,29-10,41-10,41l-39,16S382.12,692.5,372.12,650.5Z"/><path class="cls-3" d="M404.42,469.5l8.5,17.7a12,12,0,0,1-5.6,16l-23.4,11.3a12,12,0,0,1-16-5.6l-8.5-17.7a12,12,0,0,1,5.6-16l23.4-11.3A11.9,11.9,0,0,1,404.42,469.5Z"/><path class="cls-3" d="M422,391l9.4,19.5a12,12,0,0,1-5.6,16l-26.6,12.8a12,12,0,0,1-16-5.6l-9.4-19.5a12,12,0,0,1,5.6-16L406,385.4A12,12,0,0,1,422,391Z"/><path class="cls-3" d="M404.42,545.5l8.5,17.7a12,12,0,0,1-5.6,16l-23.4,11.3a12,12,0,0,1-16-5.6l-8.5-17.7a12,12,0,0,1,5.6-16l23.4-11.3A11.9,11.9,0,0,1,404.42,545.5Z"/><path class="cls-3" d="M420.12,621.6l6.8,14.1a12,12,0,0,1-5.6,16l-21.1,10.2a12,12,0,0,1-16-5.6l-6.8-14.1a12,12,0,0,1,5.6-16l21.1-10.2A11.9,11.9,0,0,1,420.12,621.6Z"/><path class="cls-43" d="M307.81,130.3c.92,4.64-1.88,8.21-4.46,8.38-2.34.15-4.92-2.48-5.15-5.15,0-.31-.2-2.23,1-3.22.59-.49,1.29-.56,4.14-.38C304.5,130,306,130.12,307.81,130.3Z"/><use id="Favorite-3" data-name="Favorite" width="20.97" height="20.14" transform="translate(297.03 128.47) scale(0.6)" xlink:href="#Favorite"/><use width="66" height="52.26" transform="translate(118.34 400.27) scale(0.65)" xlink:href="#Photo"/></g></g></svg>