<?xml version="1.0" encoding="utf-8"?>
<!-- Generator: Adobe Illustrator 21.1.0, SVG Export Plug-In . SVG Version: 6.00 Build 0)  -->
<svg version="1.1" id="Layer_1" xmlns="http://www.w3.org/2000/svg" xmlns:xlink="http://www.w3.org/1999/xlink" x="0px" y="0px"
	 viewBox="0 0 338 746" style="enable-background:new 0 0 338 746;" xml:space="preserve">
<style type="text/css">
	.st0{fill:#A67C52;}
	.st1{fill:#F15A24;}
	.st2{fill:#534741;stroke:#000000;stroke-miterlimit:10;}
	.st3{fill:#999999;}
	.st4{fill:#4D4D4D;stroke:#000000;stroke-miterlimit:10;}
	.st5{fill:none;stroke:#000000;stroke-miterlimit:10;}
	.st6{fill:#42210B;stroke:#42210B;stroke-miterlimit:10;}
	.st7{fill:#C69C6D;}
</style>
<g id="Layer_2">
	<g>
		<path d="M263.5,421.3v2.2h-1.6C262.5,422.8,263,422,263.5,421.3 M260.5,425.5v7.8l-3.6-3C257.6,429.4,258.8,427.8,260.5,425.5
			 M264.5,418.1c-1.4,2-2.6,3.8-3.7,5.3c-0.3,0.5-0.7,0.9-1,1.3c-2.7,3.7-4.3,5.7-4.3,5.7l5.9,5l0.1-11h3V418.1L264.5,418.1z"/>
	</g>
	<g>
		<path class="st0" d="M260.3,637.5h-1.8v-8h2l0.9-194l-5.9-5c0,0,1.6-2.1,4.3-5.7c0.3-0.4,0.6-0.9,1-1.3c1.1-1.6,2.4-3.3,3.7-5.3
			V299.5l14,25l15-9c18.9,26.5-12.6,78.8-29,102.6v6.4h-3l-0.1,11h0.1c76-88,39-124,39-124l5-3l-5-15c0,0-4-10-10-27s-42-13-42-13
			l-29-1v-20c23-4,27-33,27-33c22-13,5-22,5-22l3-37c-1-10-15-11-15-11v-4c-2-7-13-14-13-14c-19-6-58-2-58-2c-14,5-18,24-18,24
			c-3,15,3,44,3,44c-9,15,8,23,8,23l3,15c-1,3,21,18,21,18l-1,13c-40-33-78,36-78,36l3,4l-29,33c-30,36-28-17-28-17l-1-33h-13
			c0,0,1,20,4,57s43,6,43,6l35-37l16,14l15-21c3,39,4,136,4,136h5l9,202h4l-1,11.5c8.3,3.2,17.7,5.6,25.5,0.4c-0.6-0.3-1-0.4-1-0.4
			v-10h4l3-167c-0.5-31.5,15.5-0.5,15.5-0.5l12,171h3v6.7C243,640.7,252.7,641.7,260.3,637.5z"/>
	</g>
</g>
<g id="Layer_4">
	<path class="st1" d="M106.5,282.5l30,27l15-21l4,136h109v-128l14,28l27-16c0,0-6.1-59.9-39.1-55c-32.9,5,0,0,0,0h-46.9
		c0,0-17,24-36-7S119.5,260.5,106.5,282.5"/>
</g>
<g id="Layer_5">
	<path class="st2" d="M161,424h99l0.5,205.5h-29l-12-169c0,0-13-28-16-5L201,626.8l-31.6-2l-7.9-200.3"/>
</g>
<g id="Layer_6">
	<g>
		<path class="st3" d="M230.5,662.5V652c-0.2-3.1-0.2-11.7,1.9-14c0.3-0.4,0.7-0.5,1.1-0.5c0.1,0,0.2,0,0.3,0l0.6,0.1v-0.3
			c4.7,1.4,9.1,2,13,2c4.7,0,8.9-1,12.4-2.9h4.9c1.5,0.5,22,8.1,23.9,13.6c0.2,0.6,0.1,1.1-0.2,1.6l-0.1,0.1v10.7h-57.8L230.5,662.5
			L230.5,662.5z"/>
		<path d="M264.8,637c1,0.3,6,2.2,11.1,4.6c9.8,4.6,11.9,7.4,12.3,8.6c0.2,0.5,0.1,0.8-0.1,1.2l-0.2,0.3v0.3v10h-57v-10l0,0l0,0
			c-0.3-4.2,0-11.7,1.8-13.6c0.3-0.3,0.6-0.4,0.8-0.4c0.1,0,0.2,0,0.2,0l1.2,0.2V638c4.5,1.2,8.7,1.9,12.5,1.9c4.8,0,9-1,12.6-2.9
			H264.8 M265,636h-5.2c-3.7,2.1-8,2.9-12.3,2.9c-4.5,0-9.2-0.9-13.5-2.2v0.3c-0.2,0-0.3,0-0.4,0c-4.5,0-3.6,15-3.6,15v11h59v-11
			C293,646,265,636,265,636L265,636z"/>
	</g>
	<g>
		<path class="st3" d="M161.5,662.5V654c0,0,3-14.6,11.6-16.5l0.4-0.1v-0.2c4.2,1.6,9.5,3.2,14.6,3.2c4,0,7.4-1,10.4-2.9
			c1.7,1,5.2,4.1,5.9,12.5v12.5H161.5z"/>
		<path d="M173.8,637.8c4.1,1.5,9.3,3.1,14.3,3.1c3.9,0,7.4-1,10.4-2.8c1.7,1.1,4.8,4.2,5.4,11.9v12h-42v-7.9
			c0.3-1.2,3.3-14.4,11.2-16.1L173.8,637.8 M173,636.5v0.5c-9,2-12,17-12,17v9h44v-13c-0.7-9-4.6-12.1-6.5-13.1
			c-3.3,2.2-6.8,3-10.4,3C183.1,639.9,177.9,638.3,173,636.5L173,636.5z"/>
	</g>
	<path class="st4" d="M289,653.9c0.5,0.6-59-0.9-59-0.9"/>
	<path class="st5" d="M205,653c0.5-0.5-43.8,0-43.8,0"/>
</g>
<g id="Layer_7">
	<path class="st0" d="M37,269.1c-1.5,0.4,2.4-4.8-15.3-9.2c0,0-4.6-5.4,1.3-3.9s5.9,1.5,5.9,1.5s6,0.5,0.2-3l-8.6-5.7
		c0,0-5.2-10.4,3.4-4.8l8.6,5.7c0,0,6.8,2.5,2.2-2.8L23.4,237c0,0-8.2-10.7,4.2-2.7l9.5,6.8c0,0,5.7,4.4,2.3-3.8l-3.5-6.3
		c0,0-3.1-11.3,5.1-1.6c0,0,11.1,24.9,13.2,24.1c0,0-0.1,1,3,0.2c0,0,18-11.7,6.6,5.5c0,0-11.5,6.1-12.3,16.1
		C51.6,275.2,38.6,268.7,37,269.1z"/>
</g>
<g id="Layer_3">
	<path class="st6" d="M251.6,176.5c0,0-6.1,7-8.1,18c0,0-17-49-15-50s-52,21-67,13l-3,35c0,0-7-13-5-15c0,0-17-54,15-68
		c0,0,70-5.9,71,19c0,0,20,2.7,14,24.3L251.6,176.5z"/>
	<path class="st6" d="M169.5,166.5v7c0,0,15-2,16,0s-1-6,0-6S169.5,166.5,169.5,166.5z"/>
	<path class="st6" d="M212.5,173.5c0,0,11-2,16,0c0,0,3-7,1-7s-17,0-17,0V173.5z"/>
	<path class="st6" d="M179.5,193.5h-2c-1.6,0-3-1.4-3-3v-8c0-1.6,1.4-3,3-3h2c1.6,0,3,1.4,3,3v8
		C182.5,192.1,181.1,193.5,179.5,193.5z"/>
	<path class="st6" d="M222.5,193.5h-1c-1.6,0-3-1.4-3-3v-8c0-1.6,1.4-3,3-3h1c1.6,0,3,1.4,3,3v8
		C225.5,192.1,224.1,193.5,222.5,193.5z"/>
	<path class="st7" d="M184,208c-0.3,0.9,7.6,6.6,17,6c8.7-0.5,15.4-6.1,15-7c-0.3-0.8-6.7,2.9-17,3C189.8,210.1,184.2,207.3,184,208
		z"/>
</g>
</svg>
