<svg xmlns="http://www.w3.org/2000/svg" viewBox="0 0 1600 312.89"><defs><style>.cls-1{fill:#a67c52;}.cls-2{fill:#99704a;}.cls-3{fill:#ceae93;}.cls-4{fill:#ddc4a7;}</style></defs><title>Asset 2scene1</title><g id="Layer_2" data-name="Layer 2"><g id="Layer_1-2" data-name="Layer 1"><g id="arme"><g id="arme-2" data-name="arme"><path class="cls-1" d="M442,200.1h29c14-10,14-20,14-20-4-18-16-20-16-20H442Z" transform="translate(0 -138.21)"/><path class="cls-1" d="M404,201.1c-23,1-23-21-23-21h23Z" transform="translate(0 -138.21)"/><path class="cls-1" d="M400,242.1c-18,0-21,22-21,22-1,19,23,22,23,22h66c22-3,19-23,19-23-1-18-19-21-19-21" transform="translate(0 -138.21)"/><path class="cls-2" d="M399,200.1c-21,4-19,22-19,22-1,17,21,22,21,22h79c21-8,17-22,17-22,1-19-18-22-18-22H399Z" transform="translate(0 -138.21)"/><path class="cls-2" d="M462,285.1s16,5,15,22-18,21-18,21-35,2-57,0-22-22-22-22c-2-14,22-21,22-21Z" transform="translate(0 -138.21)"/><path class="cls-1" d="M360,180.1v147c-43-2-42-41-42-41v-106c0-41,34-41,34-41s71-2,79,0,12,18,12,18-1,46,0,47-3,7-3,7c-8,11-18,11-18,11-16-3-18-13-18-13v-29Z" transform="translate(0 -138.21)"/><path class="cls-3" d="M415,189.1c-9,0-3,23-3,23,9,10,12,6,12,6s13,0,15-13-5-16-5-16H415Z" transform="translate(0 -138.21)"/><path class="cls-3" d="M403,194.1v-13H389C390,196.1,403,194.1,403,194.1Z" transform="translate(0 -138.21)"/><path class="cls-3" d="M415,315.1c-27,18-26-11-26-11,9-28,26-4,26-4v15Z" transform="translate(0 -138.21)"/><path class="cls-3" d="M415,274.1c-27,18-26-11-26-11,9-28,26-4,26-4v15Z" transform="translate(0 -138.21)"/><path class="cls-3" d="M414,231.1c-27,18-26-11-26-11,9-28,26-4,26-4v15Z" transform="translate(0 -138.21)"/><path class="cls-1" d="M1168.3,200.1h-29c-14-10-14-20-14-20,4-18,16-20,16-20h27Z" transform="translate(0 -138.21)"/><path class="cls-1" d="M1206.3,201.1c23,1,23-21,23-21h-23Z" transform="translate(0 -138.21)"/><path class="cls-1" d="M1210.3,242.1c18,0,21,22,21,22,1,19-23,22-23,22h-66c-22-3-19-23-19-23,1-18,19-21,19-21" transform="translate(0 -138.21)"/><path class="cls-2" d="M1211.3,200.1c21,4,19,22,19,22,1,17-21,22-21,22h-79c-21-8-17-22-17-22-1-19,18-22,18-22h80Z" transform="translate(0 -138.21)"/><path class="cls-2" d="M1148.3,285.1s-16,5-15,22,18,21,18,21,35,2,57,0,22-22,22-22c2-14-22-21-22-21Z" transform="translate(0 -138.21)"/><path class="cls-1" d="M1250.3,180.1v147c43-2,42-41,42-41v-106c0-41-34-41-34-41s-71-2-79,0-12,18-12,18,1,46,0,47,3,7,3,7c8,11,18,11,18,11,16-3,18-13,18-13v-29Z" transform="translate(0 -138.21)"/><path class="cls-3" d="M1195.3,189.1c9,0,3,23,3,23-9,10-12,6-12,6s-13,0-15-13,5-16,5-16h19Z" transform="translate(0 -138.21)"/><path class="cls-3" d="M1207.3,194.1v-13h14C1220.3,196.1,1207.3,194.1,1207.3,194.1Z" transform="translate(0 -138.21)"/><path class="cls-3" d="M1195.3,315.1c27,18,26-11,26-11-9-28-26-4-26-4v15Z" transform="translate(0 -138.21)"/><path class="cls-3" d="M1195.3,274.1c27,18,26-11,26-11-9-28-26-4-26-4v15Z" transform="translate(0 -138.21)"/><path class="cls-3" d="M1196.3,231.1c27,18,26-11,26-11-9-28-26-4-26-4v15Z" transform="translate(0 -138.21)"/><path class="cls-4" d="M323,0" transform="translate(0 -138.21)"/><polygon class="cls-1" points="318 147.89 111 312.89 0 312.89 0 231.89 318 68.32 318 147.89"/><polygon class="cls-1" points="1282 147.89 1489 312.89 1600 312.89 1600 231.89 1282 68.32 1282 147.89"/></g></g></g></g></svg>