<svg xmlns="http://www.w3.org/2000/svg" viewBox="0 0 435.65 554.09"><defs><style>.cls-1{fill:#a67c52;}.cls-2{fill:#ceb699;}.cls-3{fill:#fff1dd;stroke:#000;stroke-miterlimit:10;}</style></defs><title>drenghåndbevæg</title><g id="Layer_2" data-name="Layer 2"><g id="Layer_1-2" data-name="Layer 1"><g id="Layer_2-2" data-name="Layer 2"><g id="Layer_2-2-2" data-name="Layer 2-2"><path class="cls-1" d="M435.65,515.09l-39-81s-2-75-16-120l-47-139s-23-26-46-6a33.86,33.86,0,0,0-39,0s-32-11-45,13c0,0-18-20-48,6l-55-168s-45-56-66,19l101,305s-78-44-93-39c0,0-66-5-33,43,0,0,37,38,96,66,0,0,42,30,60,54,0,0,43,27,52,27s43,59,43,59Z"/><rect class="cls-2" x="51.08" y="13.1" width="41.13" height="50" rx="12" ry="12" transform="translate(-8.19 23.54) rotate(-17.67)"/><path class="cls-2" d="M1,328.09s44.32,17.58,34.12,44C32.91,373.79-6.79,337.55,1,328.09Z"/><path class="cls-3" d="M54.15,359.59"/></g></g></g></g></svg>