<svg xmlns="http://www.w3.org/2000/svg" xmlns:xlink="http://www.w3.org/1999/xlink" viewBox="0 0 1600.96 901.25"><defs><style>.cls-1{fill:#444;opacity:0.4;isolation:isolate;}.cls-2{fill:#525252;}.cls-3{fill:#a67c52;}.cls-4{fill:#99704a;}.cls-5{fill:#ceae93;}.cls-6{fill:#ddc4a7;}</style><symbol id="New_Symbol" data-name="New Symbol" viewBox="0 0 1600.96 901.25"><g id="New_Symbol-3" data-name="New Symbol"><g id="Layer_2-2" data-name="Layer 2"><g id="Layer_1-2-2" data-name="Layer 1-2"><g id="tremmer_1" data-name="tremmer 1"><g id="Baggrund1_copy" data-name="Baggrund1 copy"><rect class="cls-1" x="0.5" width="1600.46" height="900.26"/></g><g id="tremmer_copy" data-name="tremmer copy"><polyline class="cls-2" points="0 46.51 1600.46 46.51 1600.96 0 0.5 0"/><rect class="cls-2" x="359.6" y="46.51" width="54.02" height="807.73"/><rect class="cls-2" x="568.66" y="46.51" width="54.02" height="807.73"/><rect class="cls-2" x="134.54" y="46.51" width="54.02" height="807.73"/><rect class="cls-2" x="1198.84" y="46.51" width="54.02" height="807.73"/><polyline class="cls-2" points="0.5 854.25 1600.96 854.25 1600.46 900.76 0 900.76"/><rect class="cls-2" x="992.78" y="46.51" width="54.02" height="807.73"/><rect class="cls-2" x="783.72" y="46.51" width="54.02" height="807.73"/><rect class="cls-2" x="1402.9" y="46.51" width="54.02" height="807.73"/></g></g></g></g><g id="Layer_2-3" data-name="Layer 2"><g id="Layer_1-2-3" data-name="Layer 1-2"><g id="arme"><g id="arme-2"><path class="cls-3" d="M442.63,650.18h29c14-10,14-20,14-20-4-18-16-20-16-20h-27Z"/><path class="cls-3" d="M404.62,651.18c-23,1-23-21-23-21h23Z"/><path class="cls-3" d="M400.61,692.19c-18,0-21,22-21,22-1,19,23,22,23,22h66c22-3,19-23,19-23-1-18-19-21-19-21"/><path class="cls-4" d="M399.61,650.18c-21,4-19,22-19,22-1,17,21,22,21,22h79c21-8,17-22,17-22,1-19-18-22-18-22Z"/><path class="cls-4" d="M462.63,735.2s16,5,15,22-18,21-18,21-35,2-57,0-22-22-22-22c-2-14,22-21,22-21Z"/><path class="cls-3" d="M360.6,630.17v147c-43-2-42-41-42-41v-106c0-41,34-41,34-41s71-2,79,0,12,18,12,18-1,46,0,47-3,7-3,7c-8,11-18,11-18,11-16-3-18-13-18-13v-29Z"/><path class="cls-5" d="M415.62,639.17c-9,0-3,23-3,23,9,10,12,6,12,6s13,0,15-13-5-16-5-16Z"/><path class="cls-5" d="M403.62,644.17v-13h-14C390.61,646.17,403.62,644.17,403.62,644.17Z"/><path class="cls-5" d="M415.62,765.21c-27,18-26-11-26-11,9-28,26-4,26-4Z"/><path class="cls-5" d="M415.62,724.2c-27,18-26-11-26-11,9-28,26-4,26-4Z"/><path class="cls-5" d="M414.62,681.19c-27,18-26-11-26-11,9-28,26-4,26-4Z"/><path class="cls-3" d="M1169.13,650.18h-29c-14-10-14-20-14-20,4-18,16-20,16-20h27Z"/><path class="cls-3" d="M1207.15,651.18c23,1,23-21,23-21h-23Z"/><path class="cls-3" d="M1211.15,692.19c18,0,21,22,21,22,1,19-23,22-23,22h-66c-22-3-19-23-19-23,1-18,19-21,19-21"/><path class="cls-4" d="M1212.15,650.18c21,4,19,22,19,22,1,17-21,22-21,22h-79c-21-8-17-22-17-22-1-19,18-22,18-22Z"/><path class="cls-4" d="M1149.13,735.2s-16,5-15,22,18,21,18,21,35,2,57,0,22-22,22-22c2-14-22-21-22-21Z"/><path class="cls-3" d="M1251.16,630.17v147c43-2,42-41,42-41v-106c0-41-34-41-34-41s-71-2-79,0-12,18-12,18,1,46,0,47,3,7,3,7c8,11,18,11,18,11,16-3,18-13,18-13v-29Z"/><path class="cls-5" d="M1196.14,639.17c9,0,3,23,3,23-9,10-12,6-12,6s-13,0-15-13,5-16,5-16Z"/><path class="cls-5" d="M1208.15,644.17v-13h14C1221.15,646.17,1208.15,644.17,1208.15,644.17Z"/><path class="cls-5" d="M1196.14,765.21c27,18,26-11,26-11-9-28-26-4-26-4Z"/><path class="cls-5" d="M1196.14,724.2c27,18,26-11,26-11-9-28-26-4-26-4Z"/><path class="cls-5" d="M1197.14,681.19c27,18,26-11,26-11-9-28-26-4-26-4Z"/><path class="cls-6" d="M323.59,450"/><polygon class="cls-3" points="318.59 736.2 111.53 901.25 0.5 901.25 0.5 820.23 318.59 656.61 318.59 736.2"/><polygon class="cls-3" points="1282.87 736.2 1489.93 901.25 1600.96 901.25 1600.96 820.23 1282.87 656.61 1282.87 736.2"/></g></g></g></g></g></symbol></defs><title>Asset 1scene1</title><g id="Layer_2" data-name="Layer 2"><g id="Layer_1-2" data-name="Layer 1"><use width="1600.96" height="901.25" xlink:href="#New_Symbol"/></g></g></svg>