<svg xmlns="http://www.w3.org/2000/svg" xmlns:xlink="http://www.w3.org/1999/xlink" viewBox="0 0 1600.5 900.5"><defs><style>.cls-1{fill:#525252;}.cls-2{fill:#444;opacity:0.4;isolation:isolate;}.cls-3{fill:#ddc4a7;}.cls-4{fill:#eaccad;}.cls-5{fill:red;}.cls-6{fill:none;}</style><symbol id="dame" data-name="dame" viewBox="0 0 1600.5 900.5"><g id="tremmer"><rect class="cls-1" x="359.5" y="46.5" width="54" height="807.5"/><rect class="cls-1" x="568.5" y="46.5" width="54" height="807.5"/><rect class="cls-1" x="1402.5" y="46.5" width="54" height="807.5"/><rect class="cls-1" x="1198.5" y="46.5" width="54" height="807.5"/><rect class="cls-1" x="992.5" y="46.5" width="54" height="807.5"/><rect class="cls-1" x="783.5" y="46.5" width="54" height="807.5"/><rect class="cls-1" x="134.5" y="46.5" width="54" height="807.5"/><polyline class="cls-1" points="0 0 1600 0 1600.5 46.5 0.5 46.5"/><polyline class="cls-1" points="0.5 900.5 1600.5 900.5 1600 854 0 854"/></g><g id="baggrund1"><rect class="cls-2" x="0.5" y="0.5" width="1600" height="900"/></g><path class="cls-3" d="M442.5,291.5h27s12-2,16-20c0,0,0-10-14-20h-29Z"/><path class="cls-3" d="M404.5,271.5h-23s0-22,23-21Z"/><path class="cls-3" d="M468.5,209.5s18-3,19-21c0,0,3-20-19-23h-66s-24,3-23,22c0,0,3,22,21,22"/><path class="cls-4" d="M444.5,251.5h35s19-3,18-22c0,0,4-14-17-22h-79s-22,5-21,22c0,0-2,18,19,22Z"/><path class="cls-4" d="M402.5,166.5s-24-7-22-21c0,0,0-20,22-22s57,0,57,0,17,4,18,21-15,22-15,22Z"/><path class="cls-3" d="M404.5,271.5v-29s2-10,18-13c0,0,10,0,18,11,0,0,4,6,3,7s0,47,0,47-4,16-12,18-79,0-79,0-34,0-34-41v-106s-1-39,42-41v147Z"/><path class="cls-5" d="M424.5,262.5h10s7-3,5-16-15-13-15-13-3-4-12,6c0,0-6,23,3,23Z"/><path class="cls-5" d="M389.5,270.5h14v-13S390.5,255.5,389.5,270.5Z"/><path class="cls-5" d="M415.5,144.5v7s-17,24-26-4c0,0-1-29,26-11Z"/><path class="cls-5" d="M415.5,185.5v7s-17,24-26-4c0,0-1-29,26-11Z"/><path class="cls-5" d="M414.5,228.5v7s-17,24-26-4c0,0-1-29,26-11Z"/><path class="cls-3" d="M1168.8,291.5h-27s-12-2-16-20c0,0,0-10,14-20h29Z"/><path class="cls-3" d="M1206.8,271.5h23s0-22-23-21Z"/><path class="cls-3" d="M1142.8,209.5s-18-3-19-21c0,0-3-20,19-23h66s24,3,23,22c0,0-3,22-21,22"/><path class="cls-4" d="M1166.8,251.5h-35s-19-3-18-22c0,0-4-14,17-22h79s22,5,21,22c0,0,2,18-19,22Z"/><path class="cls-4" d="M1208.8,166.5s24-7,22-21c0,0,0-20-22-22s-57,0-57,0-17,4-18,21,15,22,15,22Z"/><path class="cls-3" d="M1206.8,271.5v-29s-2-10-18-13c0,0-10,0-18,11,0,0-4,6-3,7s0,47,0,47,4,16,12,18,79,0,79,0,34,0,34-41v-106s1-39-42-41v147Z"/><path class="cls-5" d="M1186.8,262.5h-10s-7-3-5-16,15-13,15-13,3-4,12,6c0,0,6,23-3,23Z"/><path class="cls-5" d="M1221.8,270.5h-14v-13S1220.8,255.5,1221.8,270.5Z"/><path class="cls-5" d="M1195.8,144.5v7s17,24,26-4c0,0,1-29-26-11Z"/><path class="cls-5" d="M1195.8,185.5v7s17,24,26-4c0,0,1-29-26-11Z"/><path class="cls-5" d="M1196.8,228.5v7s17,24,26-4c0,0,1-29-26-11Z"/><polygon class="cls-3" points="319.5 245.07 1.5 81.5 1.5 0.5 112.5 0.5 319.5 165.5 319.5 245.07"/><polygon class="cls-3" points="1282.5 245.07 1600.5 81.5 1600.5 0.5 1489.5 0.5 1282.5 165.5 1282.5 245.07"/><rect id="baggrund2-5" class="cls-6" x="0.5" y="0.5" width="1600" height="900"/></symbol></defs><title>Asset 1scene1</title><g id="Layer_2" data-name="Layer 2"><g id="Layer_1-2" data-name="Layer 1"><use width="1600.5" height="900.5" transform="matrix(1, 0, 0, -1, 0, 900.5)" xlink:href="#dame"/></g></g></svg>