<?xml version="1.0" encoding="utf-8"?>
<!-- Generator: Adobe Illustrator 21.1.0, SVG Export Plug-In . SVG Version: 6.00 Build 0)  -->
<svg version="1.1" id="Layer_1" xmlns="http://www.w3.org/2000/svg" xmlns:xlink="http://www.w3.org/1999/xlink" x="0px" y="0px"
	 viewBox="0 0 338 746" style="enable-background:new 0 0 338 746;" xml:space="preserve">
<style type="text/css">
	.st0{fill:#DDC4A7;}
	.st1{fill:none;}
	.st2{fill:#FCEE21;}
	.st3{stroke:#000000;stroke-miterlimit:10;}
	.st4{fill:#FF0000;}
	.st5{fill:#FFFFFF;}
	.st6{fill:#00FFFF;}
	.st7{fill:#102A3D;stroke:#000000;stroke-miterlimit:10;}
	.st8{fill:#C69C6D;stroke:#A67C52;stroke-miterlimit:10;}
	.st9{fill:#C69C6D;stroke:#000000;stroke-miterlimit:10;}
	.st10{fill:none;stroke:#000000;stroke-miterlimit:10;}
</style>
<g id="Layer_3">
	<path class="st0" d="M106.5,283L95,272.9l-20.9,21.8c0,0-10.7,9.3-8.4-4.5c0,0,15.1-47.1,18.9-45.5l12.9-10c0,0,8.4-7.7-3.9-6.8
		c0,0-7.3,6.9-8.1-0.4l-11.3-23.2c0,0-6.5-9.2-4.3,1.3l3.4,9.7c0,0,0.8,7.2-4.4,2.3l-10.5-9.9c0,0-9.7-8.7-4.4,2.3l10.5,9.9
		c0,0,6.7,8.2-1.5,2.8l-8-6.4c0,0-10.7-2.8-4.6,3.3s7.9,7.4,7.9,7.4s4.4,3.8-0.3,2l-5.9-1c0,0-6.6,2.9-0.8,4.9l11.3,5
		c0,0,6.9,1.2,2.6,8.6c0,0-16.6,37.8-16.3,48s2.4,27.8,27.6,16.9C76.3,311.3,108,286.2,106.5,283z"/>
	<path class="st0" d="M129,169.5v-34c0,0,49-82,108,0v110l32,45l-31,18l-10-12v54h-17c0,0-5,38-1,38s16,7,13,47c0,0-20,139-18,194
		c0,0,13,9,13,14s0,13,0,13h-45l-1-19c0,0,1-6,9-7c0,0,12-193,10-195s-26-7-27,4s-6,192-6,192s15,21,1,25h-45c0,0-6.1-16.1,1.7-20.1
		c1.1-0.6,2.5-0.9,4.3-0.9c14,0,20-2,20-2l3-199c0,0-13-42-1-48v-34l-13-2l1-65l-18,4l-23-20c0,0,35-34,46-26l-5-50
		C130,193.5,115,179.5,129,169.5z"/>
	<path class="st0" d="M265.7,292.3c0,0,59.3,58.2,0.3,91.2l-35,22c0,0-5.7,7.3-7.3,3.7c-1.7-3.7-5.6-14.7-5.6-14.7
		s103.2-32.6,34.6-94.8s0,0,0,0l0,0l0,0L265.7,292.3"/>
</g>
<g id="Layer_7">
</g>
<g id="Layer_6">
</g>
<g id="Layer_2">
	<path class="st1" d="M182,136.5l-41,34h-12c0,0-13,7,0,23h6c0,0,12,39,33,32l-1,15l-11,4c-1.3,1.7,16.3,36.9,23,38
		c8.5,1.4,27.7-9.6,28-39l-11-4v-13c1.2,2.7,23.9-17,25-17c7.2,0.1,6.7-24.3,0-38C221,171.5,204,140.5,182,136.5z"/>
	<g>
		<g>
			<path d="M197.2,173.8c3.3,2.2,8.2,0.8,9.9-2.8c0.8-1.7-1.8-3.3-2.6-1.5c-1,2.2-3.7,3-5.8,1.7
				C197.1,170.1,195.6,172.7,197.2,173.8L197.2,173.8z"/>
		</g>
	</g>
	<g>
		<g>
			<path d="M166.7,170.6c-1.9,1.3-4.5,0.7-5.5-1.4c-0.9-1.7-3.5-0.2-2.6,1.5c1.8,3.4,6.4,4.6,9.6,2.4
				C169.8,172.1,168.3,169.5,166.7,170.6L166.7,170.6z"/>
		</g>
	</g>
</g>
<g id="Layer_4">
	<path class="st2" d="M237,245.5c0,3,0-116,0-113s-56.9-77-111.5,0v39H136c2.6,5.5,43.7-29.3,45.2-35c1.5-5.4,34.7,18.5,41,40.3
		c0,0,4.4,33,0,32.7c-2.8-0.2-20.6,13.6-28.4,17v13c0,0,11.6,3,11.6,6S237,242.5,237,245.5z"/>
	<path class="st2" d="M135,243.5h21l11-3v-15c0,0-19,7-32-32h-4L135,243.5z"/>
	<path class="st3" d="M194,179.5L194,179.5c-2.2,0-4-1.8-4-4v-5c0-2.2,1.8-4,4-4l0,0c2.2,0,4,1.8,4,4v5
		C198,177.7,196.2,179.5,194,179.5z"/>
	<path class="st3" d="M171,179.5L171,179.5c-2.2,0-4-1.8-4-4v-5c0-2.2,1.8-4,4-4l0,0c2.2,0,4,1.8,4,4v5
		C175,177.7,173.2,179.5,171,179.5z"/>
	<path class="st4" d="M165,205.5c10.5,14.3,20.3,13.5,29.5,0.6"/>
	<path class="st5" d="M164.6,205.6l30,0.4c-6.2,3.7-15.2,11.2-16.1,4.3C175.8,214.8,170.1,209.3,164.6,205.6z"/>
</g>
<g id="Layer_5">
	<path class="st6" d="M228,350.5c0,0-99,3-99,0s2-65,2-65l-19,4l-23-20c0,0,36-34,46-26h21c0-2.9,25,88.4,51,2
		c2.5-3.9,40.1-17.5,52.4,31.5l9.6,13.5l-32,18l-9-11V350.5z"/>
	<path class="st7" d="M139.4,388.8h72.1c13.9,7.9,15.9,29.9,9.3,62.3l-15.9,164h-23l9.3-177.4c0,0-11-10.4-26.1-1.3l-6.6,178.7
		h-18.2l2.7-180.6C143,434.5,128.9,389.1,139.4,388.8z"/>
	<path class="st8" d="M158,631.5c-18,2-18,2-18,2s-37-3.2-28,14.9l2,8.1h45c0,0,10.2-3.7,4.6-14.4C158,631.5,158,631.5,158,631.5z"
		/>
	<path class="st9" d="M181,630.5l24-1c0,0,15,11,13,14v3v10h-45c0,0-1.7-4.6-2.2-10C170.1,639.6,171.5,631.6,181,630.5z"/>
	<line class="st10" x1="171" y1="646.5" x2="218" y2="644.5"/>
	<path class="st7" d="M176,678.5"/>
	<path class="st7" d="M112,648.5c53-2,53-2,53-2"/>
</g>
<g id="Layer_8">
	<path class="st2" d="M207,162.5c0,0,8,6-1,3c0,0-10-6-17,0c0,0-9-4-3-5C186,160.5,204,158.5,207,162.5z"/>
	<path class="st2" d="M158,163.5c0,0-6,5,1,2c0,0,2-2,5-2s11-1,13,1c0,0,2,1,3-1S163,156.4,158,163.5z"/>
</g>
</svg>
