<svg xmlns="http://www.w3.org/2000/svg" viewBox="0 0 436.46 555.16"><defs><style>.cls-1{fill:#ddc4a7;stroke:#c4a48a;}.cls-1,.cls-3{stroke-miterlimit:10;}.cls-2{fill:#f10d00;}.cls-3{fill:#fff1dd;stroke:#000;}</style></defs><title>pigehånd2</title><g id="Layer_2" data-name="Layer 2"><g id="Layer_2-2" data-name="Layer 2"><path class="cls-1" d="M435.74,515.59l-39-81s-2-75-16-120l-47-139s-23-26-46-6a33.86,33.86,0,0,0-39,0s-32-11-45,13c0,0-18-20-48,6l-55-168s-45-56-66,19l101,305s-78-44-93-39c0,0-66-5-33,43,0,0,37,38,96,66,0,0,42,30,60,54,0,0,43,27,52,27s43,59,43,59Z"/><rect class="cls-2" x="51.17" y="13.61" width="41.13" height="50" rx="12" ry="12" transform="translate(-8.34 23.59) rotate(-17.67)"/><path class="cls-2" d="M1.1,328.59s44.32,17.58,34.12,44C33,374.29-6.7,338.05,1.1,328.59Z"/><path class="cls-3" d="M54.24,360.09"/></g></g></svg>
