<?xml version="1.0" encoding="utf-8"?>
<!-- Generator: Adobe Illustrator 21.1.0, SVG Export Plug-In . SVG Version: 6.00 Build 0)  -->
<svg version="1.1" id="Layer_1" xmlns="http://www.w3.org/2000/svg" xmlns:xlink="http://www.w3.org/1999/xlink" x="0px" y="0px"
	 viewBox="0 0 1365 768" style="enable-background:new 0 0 1365 768;" xml:space="preserve">
<style type="text/css">
	.st0{fill:#FBB03B;}
	.st1{fill:#333333;}
	.st2{fill:#FFFFFF;}
	.st3{font-family:'Arial-BoldMT';}
	.st4{font-size:100px;}
	.st5{fill:none;stroke:#000000;stroke-miterlimit:10;}
	.st6{clip-path:url(#SVGID_2_);}
	.st7{clip-path:url(#SVGID_4_);}
	.st8{fill:#1F2733;}
	.st9{fill:#DA8E38;}
	.st10{fill:#F7931E;stroke:#000000;stroke-miterlimit:10;}
	.st11{font-size:72px;}
	.st12{letter-spacing:1;}
	.st13{letter-spacing:2;}
</style>
<title>startside_sex&amp;amp;samfund</title>
<rect x="0.5" y="368.5" class="st0" width="1365" height="399"/>
<path d="M1365,369v398H1V369H1365 M1366,368H0v400h1366V368z"/>
<rect x="0.5" y="0.5" class="st1" width="1365" height="367"/>
<path d="M1365,1v366H1V1H1365 M1366,0H0v368h1366V0z"/>
<text transform="matrix(1 0 0 1 345 398.76)" class="st2 st3 st4"> #MinGrænse</text>
<text transform="matrix(1 0 0 1 345 398.76)" class="st5 st3 st4"> #MinGrænse</text>
<g>
	<defs>
		<rect id="SVGID_1_" x="588" y="23" width="168" height="109"/>
	</defs>
	<clipPath id="SVGID_2_">
		<use xlink:href="#SVGID_1_"  style="overflow:visible;"/>
	</clipPath>
	<g class="st6">
		<g>
			<defs>
				<rect id="SVGID_3_" x="588" y="23" width="168" height="109"/>
			</defs>
			<clipPath id="SVGID_4_">
				<use xlink:href="#SVGID_3_"  style="overflow:visible;"/>
			</clipPath>
			<g class="st7">
				<path class="st8" d="M625.7,79.3c-0.6,0.2-1.2,0.6-1.7,1c-1.9,1.2-3.8,2.5-5.8,3.8c-0.2,0.1-0.3,0.3-0.5,0.2s-0.2-0.3-0.2-0.5
					c0-2.6,0-5.1,0-7.7c0-0.6-0.2-0.7-0.8-0.7c-1.9,0-3.8,0-5.7,0c-2.3,0-4-1.5-4-3.5c0-9.3,0.1-18.6,0-27.9c0-2.4,2-3.8,4.5-3.8
					c39.8,0,79.5,0,119.3,0c2.5,0,4.1,1.4,4.1,3.5c0,9.4,0,18.8,0,28.2c0,1.8-1.1,2.9-3.3,3.5h-1.3h-98.2c-0.5,0-1.1,0.1-1.5,0.4
					c-1,0.7-2,1.3-3,2C627,78.1,626.3,78.6,625.7,79.3"/>
				<path class="st9" d="M625.7,79.3c0.6-0.6,1.3-1.1,2-1.5c1-0.7,2-1.3,3-2c0.4-0.3,1-0.4,1.5-0.4h98.2h1.3
					c0.2,0.4,0.8,0.3,1.1,0.6c1.2,0.5,1.9,1.7,1.9,3c0,9.3,0,18.7,0,28c0,2-1.6,3.8-4.4,3.8c-19.4,0-38.8,0-58.3,0c-7,0-14,0-21,0
					c-0.7,0-1.4,0.2-2,0.6c-3.3,2.2-6.6,4.4-9.9,6.5c-0.8,0.5-1.5,1-2.3,1.5c-0.5,0.3-0.6,0.2-0.6-0.3c0-2.4,0-4.9,0-7.3
					c0-1,0-1-1.1-1c-1.7,0-3.4,0-5.1,0c-2.1,0.2-4-1.3-4.3-3.5c0-0.1,0-0.2,0-0.2c0-9,0-18,0-27C625.7,79.8,625.7,79.6,625.7,79.3"
					/>
				<path class="st2" d="M629,66.9h-5.5V48.7h8.8c2-0.1,3.9,0.4,5.5,1.6c1.3,1.1,2,2.8,1.9,4.5c0.1,1.7-0.6,3.4-1.9,4.5
					c-1.6,1.2-3.5,1.7-5.5,1.6H629V66.9z M629,57h1.8c2,0,3-0.8,3-2.3s-1-2.3-3-2.3H629V57z"/>
				<path class="st2" d="M659.1,66.9h-6.9l-5.3-7v7h-5.5V48.7h8.5c1.1,0,2.1,0.1,3.1,0.5c0.8,0.3,1.5,0.7,2.2,1.2
					c0.6,0.5,1,1.1,1.3,1.8c0.3,0.7,0.4,1.4,0.4,2.2c0.1,1.2-0.4,2.4-1.2,3.4c-0.9,0.9-2.1,1.6-3.5,1.8L659.1,66.9z M647,56.8h1
					c0.9,0,1.7-0.2,2.5-0.6c0.9-0.6,1.2-1.8,0.6-2.8c-0.1-0.2-0.3-0.4-0.6-0.6c-0.8-0.4-1.6-0.6-2.5-0.6h-1V56.8z"/>
				<rect x="660.8" y="48.7" class="st2" width="5.5" height="18.2"/>
				<polygon class="st2" points="673.9,48.7 679,59.8 684.2,48.7 690.2,48.7 681.2,66.9 676.8,66.9 667.9,48.7 				"/>
				<path class="st2" d="M702.2,63.9h-7.9L693,67h-5.9l8.1-18.2h6l8.1,18.2h-5.9L702.2,63.9z M700.7,60.3l-2.5-6.1l-2.5,6.1H700.7z"
					/>
				<polygon class="st2" points="717.5,52.8 717.5,67 712,67 712,52.8 707.4,52.8 707.4,48.8 722,48.8 722,52.8 				"/>
				<path class="st2" d="M653.7,88.4c-0.6-0.4-1.2-0.7-1.8-0.9c-0.6-0.2-1.1-0.3-1.7-0.3c-0.6,0-1.2,0.1-1.7,0.4
					c-0.4,0.2-0.7,0.7-0.7,1.1c0,0.3,0.1,0.6,0.3,0.8c0.3,0.2,0.6,0.4,0.9,0.6c0.4,0.2,0.8,0.3,1.2,0.4l1.4,0.4c1.5,0.3,2.9,1,4,2.1
					c0.8,0.9,1.3,2.1,1.3,3.4c0,0.9-0.2,1.7-0.5,2.5c-0.4,0.8-0.9,1.4-1.6,1.9c-0.8,0.6-1.7,1-2.7,1.3c-1.1,0.3-2.3,0.5-3.5,0.4
					c-2.6,0-5.2-0.7-7.4-2.1l2.4-3.8c0.7,0.6,1.6,1.1,2.4,1.4c0.8,0.3,1.6,0.5,2.4,0.5c0.7,0.1,1.4-0.1,2-0.5
					c0.4-0.3,0.6-0.7,0.7-1.2c0-0.2,0-0.5-0.2-0.7c-0.1-0.2-0.3-0.4-0.6-0.6c-0.3-0.2-0.6-0.4-1-0.5c-0.4-0.2-0.9-0.3-1.5-0.5
					s-1.4-0.4-2.1-0.6c-0.6-0.2-1.3-0.5-1.8-0.9c-0.5-0.4-1-0.9-1.3-1.5c-0.3-0.7-0.5-1.5-0.5-2.2c0-0.8,0.2-1.7,0.5-2.4
					c0.4-0.7,0.9-1.4,1.5-1.9c0.7-0.6,1.5-1,2.3-1.2c1-0.3,2-0.5,3-0.4c1.1,0,2.2,0.1,3.3,0.4c1.1,0.2,2.2,0.6,3.3,1.1L653.7,88.4z"
					/>
				<polygon class="st2" points="658.8,101.9 658.8,83.8 664.3,83.8 674.5,94.9 674.5,83.8 680,83.8 680,101.9 674.5,101.9 
					664.3,90.8 664.3,101.9 				"/>
				<path class="st2" d="M696,98.8h-7.9l-1.3,3.2h-5.9l8-18.2h6l8.1,18.2h-5.9L696,98.8z M694.6,95.2l-2.5-6l-2.5,6H694.6z"/>
				<polygon class="st2" points="709.7,91.3 716.4,83.8 723.2,83.8 714.8,92.3 724,101.9 716.9,101.9 709.7,94 709.7,101.9 
					704.2,101.9 704.2,83.8 709.7,83.8 				"/>
			</g>
		</g>
		<rect x="495.5" y="493.5" class="st10" width="450" height="150"/>
		<text transform="matrix(1 0 0 1 483 594)" class="st2 st3 st11">    </text>
		<text transform="matrix(1 0 0 1 483 594)" class="st5 st3 st11">    </text>
		<text transform="matrix(1 0 0 1 580.92 594)" class="st2 st3 st4 st12">St</text>
		<text transform="matrix(1 0 0 1 580.92 594)" class="st5 st3 st4 st12">St</text>
		<text transform="matrix(1 0 0 1 684.82 594)" class="st2 st3 st4">a</text>
		<text transform="matrix(1 0 0 1 684.82 594)" class="st5 st3 st4">a</text>
		<text transform="matrix(1 0 0 1 754.91 594)" class="st2 st3 st4 st13">r</text>
		<text transform="matrix(1 0 0 1 754.91 594)" class="st5 st3 st4 st13">r</text>
		<text transform="matrix(1 0 0 1 803.41 594)" class="st2 st3 st4">t</text>
		<text transform="matrix(1 0 0 1 803.41 594)" class="st5 st3 st4">t</text>
		<text transform="matrix(1 0 0 1 1395.75 576.49)" class="st3 st4">Lo</text>
		<text transform="matrix(1 0 0 1 1518.95 576.49)" class="st3 st4 st12">r</text>
		<text transform="matrix(1 0 0 1 1566.15 576.49)" class="st3 st4">em ipsum</text>
	</g>
</g>
</svg>
