<svg xmlns="http://www.w3.org/2000/svg" viewBox="0 0 213 317"><defs><style>.cls-1{fill:#fff;stroke:#b6b6b6;stroke-miterlimit:10;stroke-width:12px;opacity:0.26;}</style></defs><title>bokstilfigur2</title><g id="Layer_2" data-name="Layer 2"><g id="Layer_1-2" data-name="Layer 1"><rect class="cls-1" x="6" y="6" width="201" height="305" rx="12" ry="12"/><path d="M37.81,22.31a7.94,7.94,0,0,1,4.1,3,10.7,10.7,0,0,1,1.71,3.88,18.63,18.63,0,0,1,.46,4,16,16,0,0,1-1.93,8.12,8.69,8.69,0,0,1-8.06,4.48H23.73v-24H34.09A12.66,12.66,0,0,1,37.81,22.31ZM28.6,26V41.65h4.64a5,5,0,0,0,5-3.51A12.36,12.36,0,0,0,39,33.56a11.27,11.27,0,0,0-1.15-5.63q-1.15-2-4.58-2Z"/><path d="M52.43,45.82h-5v-24h5Z"/><path d="M57,21.79h5.27l9.54,16.76V21.79h4.68v24h-5L61.73,28.77V45.82H57Z"/><path d="M90.52,21.82h17.14V26H95.51v5.53h10.65v4.17H95.51V45.82h-5Z"/><path d="M115.51,45.82h-5v-24h5Z"/><path d="M136.36,29.29a4.71,4.71,0,0,0-2.79-3.44,6.85,6.85,0,0,0-2.76-.54,6,6,0,0,0-4.77,2.19q-1.87,2.19-1.87,6.58t2,6.27a6.65,6.65,0,0,0,4.6,1.84,6,6,0,0,0,4.14-1.45,6.26,6.26,0,0,0,2-3.8h-5.56v-4h10v12.9h-3.33l-.51-3a11.52,11.52,0,0,1-2.61,2.4,9.21,9.21,0,0,1-4.89,1.22,10.17,10.17,0,0,1-7.83-3.31Q119,39.81,119,34a13.34,13.34,0,0,1,3.21-9.35,11,11,0,0,1,8.5-3.52,11.11,11.11,0,0,1,7.36,2.32,8.64,8.64,0,0,1,3.19,5.8Z"/><path d="M146.18,21.79h5.1V36.55a8.36,8.36,0,0,0,.58,3.62q.91,2,4,2t3.95-2a8.36,8.36,0,0,0,.58-3.62V21.79h5.1V36.56a12.4,12.4,0,0,1-1.19,6q-2.21,3.91-8.45,3.91t-8.47-3.91a12.4,12.4,0,0,1-1.19-6Z"/><path d="M185.7,22.41A6,6,0,0,1,188,24.08a7.47,7.47,0,0,1,1.21,2,6.74,6.74,0,0,1,.45,2.53,7.2,7.2,0,0,1-.86,3.37,4.83,4.83,0,0,1-2.85,2.34,4.49,4.49,0,0,1,2.36,1.9,7.91,7.91,0,0,1,.69,3.76v1.61a12.13,12.13,0,0,0,.13,2.23,2,2,0,0,0,.93,1.37v.6h-5.54q-.23-.8-.33-1.29a11.79,11.79,0,0,1-.21-2.07l0-2.23a4.54,4.54,0,0,0-.79-3.07,4.05,4.05,0,0,0-2.86-.77h-4.91v9.43h-4.91v-24h11.5A10.48,10.48,0,0,1,185.7,22.41ZM175.32,26v6.46h5.41a5.76,5.76,0,0,0,2.42-.39,2.71,2.71,0,0,0,1.42-2.71,3,3,0,0,0-1.38-2.94,5,5,0,0,0-2.32-.42Z"/></g></g></svg>