<svg xmlns="http://www.w3.org/2000/svg" viewBox="0 0 213 317"><defs><style>.cls-1{fill:#fff;stroke:#b6b6b6;stroke-miterlimit:10;stroke-width:12px;}</style></defs><title>bokstilfigur</title><g id="Layer_2" data-name="Layer 2"><g id="Layer_1-2" data-name="Layer 1"><rect class="cls-1" x="6" y="6" width="201" height="305" rx="12" ry="12"/><path d="M49,24.17a6.66,6.66,0,0,1,3.43,2.56A9,9,0,0,1,53.84,30a15.62,15.62,0,0,1,.38,3.34,13.38,13.38,0,0,1-1.61,6.81,7.29,7.29,0,0,1-6.76,3.76H37.17V23.73h8.69A10.62,10.62,0,0,1,49,24.17Zm-7.72,3.06V40.38h3.89a4.2,4.2,0,0,0,4.16-2.94,10.36,10.36,0,0,0,.64-3.84,9.45,9.45,0,0,0-1-4.72q-1-1.65-3.84-1.65Z"/><path d="M61.23,43.88H57V23.73h4.18Z"/><path d="M65.1,23.73h4.41l8,14.05V23.73h3.92V43.88H77.22L69,29.58v14.3H65.1Z"/><path d="M93.17,23.76h14.37V27.3H97.35v4.63h8.93v3.5H97.35v8.45H93.17Z"/><path d="M114.11,43.88h-4.18V23.73h4.18Z"/><path d="M131.6,30a4,4,0,0,0-2.34-2.88,5.74,5.74,0,0,0-2.31-.45,5,5,0,0,0-4,1.84A8.33,8.33,0,0,0,121.38,34q0,3.71,1.7,5.25a5.57,5.57,0,0,0,3.86,1.54,5,5,0,0,0,3.47-1.22,5.25,5.25,0,0,0,1.67-3.19h-4.66V33.07h8.39V43.88H133l-.42-2.52a9.65,9.65,0,0,1-2.19,2,7.73,7.73,0,0,1-4.1,1,8.53,8.53,0,0,1-6.56-2.77A10.57,10.57,0,0,1,117.08,34a11.18,11.18,0,0,1,2.69-7.84,9.18,9.18,0,0,1,7.12-3,9.31,9.31,0,0,1,6.17,1.95A7.25,7.25,0,0,1,135.74,30Z"/><path d="M139.83,23.73h4.28V36.1a7,7,0,0,0,.49,3q.76,1.69,3.32,1.69t3.31-1.69a7,7,0,0,0,.49-3V23.73H156V36.11a10.39,10.39,0,0,1-1,5q-1.86,3.28-7.08,3.28t-7.1-3.28a10.39,10.39,0,0,1-1-5Z"/><path d="M173,24.25a5,5,0,0,1,1.89,1.41,6.26,6.26,0,0,1,1,1.7,5.65,5.65,0,0,1,.37,2.12,6,6,0,0,1-.72,2.82,4.05,4.05,0,0,1-2.39,2,3.77,3.77,0,0,1,2,1.59,6.63,6.63,0,0,1,.58,3.15v1.35a10.17,10.17,0,0,0,.11,1.87,1.68,1.68,0,0,0,.78,1.15v.51h-4.65q-.19-.67-.27-1.08a9.89,9.89,0,0,1-.18-1.74l0-1.87a3.81,3.81,0,0,0-.67-2.57,3.4,3.4,0,0,0-2.4-.64h-4.11v7.9h-4.12V23.73h9.64A8.78,8.78,0,0,1,173,24.25Zm-8.7,3v5.41h4.53a4.83,4.83,0,0,0,2-.33A2.27,2.27,0,0,0,172,30a2.54,2.54,0,0,0-1.16-2.46,4.18,4.18,0,0,0-1.95-.36Z"/></g></g></svg>