<svg xmlns="http://www.w3.org/2000/svg" viewBox="0 0 512.71 1005.5"><defs><style>.cls-1{fill:#a67c52;}.cls-2{fill:#ceb699;}.cls-3{fill:#dcdfe7;}.cls-4{fill:#fefdff;}.cls-17,.cls-5{fill:#fff;}.cls-6{fill:#a1a5b4;}.cls-7{fill:none;stroke:#a1a5b4;}.cls-11,.cls-17,.cls-7{stroke-miterlimit:10;}.cls-17,.cls-7{stroke-width:2px;}.cls-8{fill:#ade4ff;}.cls-9{fill:#000309;}.cls-10{font-size:12.19px;}.cls-10,.cls-13{font-family:MyriadPro-Regular, Myriad Pro;}.cls-11{fill:#a5e5ff;}.cls-11,.cls-17{stroke:#000;}.cls-12{fill:#0073d6;}.cls-13{font-size:12.16px;}.cls-14{fill:#f7ff0d;}.cls-15{fill:#f90000;}.cls-16{fill:#f7f6f5;}</style></defs><title>drengehånd_snap</title><g id="Layer_2" data-name="Layer 2"><g id="Layer_1-2" data-name="Layer 1"><path class="cls-1" d="M400.12,725.5c18,86-78,105-78,105v175h-211v-176c-47-20-55-99-55-99l1-110c4-28-30-86-30-86-20-21-26-55-26-55,22-38,82,5,82,5Z"/><path class="cls-2" d="M1.12,484.14s42,6.36,26,51.36C26.34,536.73-6.39,488.57,1.12,484.14Z"/><rect class="cls-3" x="79.62" width="365" height="741" rx="46.49" ry="46.49"/><rect class="cls-4" x="444.12" y="145" width="3" height="47.5"/><rect class="cls-4" x="77.62" y="90" width="2" height="28"/><rect class="cls-5" x="75.62" y="148" width="4" height="46"/><rect class="cls-5" x="75.62" y="206" width="4" height="46"/><circle class="cls-6" cx="218.12" cy="43.5" r="5.5"/><circle class="cls-7" cx="267.62" cy="696" r="23"/><rect class="cls-6" x="242.62" y="42" width="47" height="5" rx="2.5" ry="2.5"/><circle class="cls-6" cx="267.62" cy="22" r="4"/><rect class="cls-8" x="103.12" y="85.81" width="324.5" height="571.68"/><polygon class="cls-9" points="381.19 89.36 381.19 98.5 406.7 98.5 406.7 95.46 409.76 95.46 409.76 92.41 405.68 92.41 405.68 89.36 381.19 89.36"/><text class="cls-10" transform="translate(256.91 95.42)">21:37</text><text class="cls-10" transform="translate(139.58 95.2)">TDC 4G</text><path class="cls-11" d="M425.59,657h-322V87.51h322Z"/><path class="cls-12" d="M426.6,653.88h-322V87h322Zm1-567.88h-324V654.89h324Z"/><text class="cls-13" transform="translate(258.66 98.61)">21:37</text><text class="cls-13" transform="translate(141.88 99.39)">TDC 4G</text><polygon class="cls-9" points="392.07 90.49 392.07 99.61 417.46 99.61 417.46 96.57 420.51 96.57 420.51 93.53 416.44 93.53 416.44 90.49 392.07 90.49"/><path class="cls-1" d="M372.12,650.5c-7.25-30.45,19-42,19-42-19,2-31-28-31-28-15-35,31-53,31-53-15,10-25-30-25-30-18-33,31-47,31-47-45-18-24-60-15-67s88-42,88-42c30-9,37,25,37,25,22,39-28,52-28,52,18,6,19,28,19,28,20,34-29,50-29,50,22,4,24,24,24,24,23,45-35,58-35,58,17-3,26,21,26,21,9,29-10,41-10,41l-39,16S382.12,692.5,372.12,650.5Z"/><rect class="cls-2" x="364.34" y="464.14" width="43.61" height="50" rx="12" ry="12" transform="translate(112.49 1049.03) rotate(-115.66)"/><rect class="cls-2" x="379.75" y="385.63" width="45.64" height="53.46" rx="12" ry="12" transform="translate(205.24 953.8) rotate(-115.66)"/><rect class="cls-2" x="364.34" y="540.14" width="43.61" height="50" rx="12" ry="12" transform="translate(43.99 1157.95) rotate(-115.66)"/><rect class="cls-2" x="382.32" y="615.18" width="39.65" height="47.46" rx="12" ry="12" transform="translate(0.42 1278.08) rotate(-115.66)"/><path class="cls-14" d="M202.05,274.82s3-18.32,25-18.32h98.09s17,.76,20,18.32V377.13s.93,16.34-17,19.55q-1,.18-2,.3c-20,2.29-101.09,0-101.09,0s-16,1.53-23-16.8Z"/><circle class="cls-15" cx="339.12" cy="273.5" r="25.5"/><rect class="cls-16" x="337.62" y="258" width="4" height="30"/><rect class="cls-16" x="330.62" y="285" width="17" height="3"/><rect class="cls-16" x="329.96" y="260.25" width="9.11" height="2.8" transform="translate(-86.85 208.63) rotate(-30.86)"/><path class="cls-17" d="M304.67,320.47s30.9-5.31,1.72,10.62c0,0,0,5.31,1.72,8s8.58,18.59,20.6,15.93-6.87,11.95-13.73,8l-1.72,6.64H296.09s-10.3,10.62-18.88,9.29-12,0-24-9.29H237.72V363s-18.88-1.33-15.45-8c0,0,25.75-8,22.32-23.9,0,0-28.53-13,.7-12l1,0V299.23a23.61,23.61,0,0,1,12-15.93c10.3-5.31,24-4,24-4a55.72,55.72,0,0,1,15.45,8c6.87,5.31,5.15,4,6.87,13.28S304.67,320.47,304.67,320.47Z"/></g></g></svg>