<svg xmlns="http://www.w3.org/2000/svg" viewBox="0 0 512.71 1005.5"><defs><style>.cls-1{fill:#a67c52;}.cls-2{fill:#ceb699;}.cls-3{fill:#dcdfe7;}.cls-4{fill:#fefdff;}.cls-15,.cls-5{fill:#fff;}.cls-6{fill:#a1a5b4;}.cls-16,.cls-7{fill:none;}.cls-7{stroke:#a1a5b4;stroke-width:2px;}.cls-15,.cls-7{stroke-miterlimit:10;}.cls-8{fill:#ade4ff;}.cls-9{fill:#000309;}.cls-10,.cls-17,.cls-18,.cls-19,.cls-20{isolation:isolate;}.cls-10{font-size:12.19px;}.cls-10,.cls-18,.cls-19,.cls-20{font-family:ArialMT, Arial;}.cls-11{fill:#d8b695;}.cls-12{fill:#c16dff;}.cls-13{fill:#0b9f00;}.cls-14{fill:#020202;}.cls-15{stroke:#000;}.cls-18,.cls-20{font-size:36px;}.cls-19{font-size:12px;}.cls-20{letter-spacing:0.78em;}.cls-21{letter-spacing:-0.02em;}</style></defs><title>dreng_valgmulighed</title><g id="Layer_2" data-name="Layer 2"><g id="Layer_1-2" data-name="Layer 1"><g id="Layer_1-3" data-name="Layer 1"><path class="cls-1" d="M400.12,725.5c18,86-78,105-78,105v175h-211v-176c-47-20-55-99-55-99l1-110c4-28-30-86-30-86-20-21-26-55-26-55,22-38,82,5,82,5Z"/><path class="cls-2" d="M1.12,484.1s42,6.4,26,51.4C26.32,536.7-6.38,488.6,1.12,484.1Z"/><path class="cls-3" d="M398.12,741h-272a46.6,46.6,0,0,1-46.5-46.5V46.5A46.6,46.6,0,0,1,126.12,0h272a46.6,46.6,0,0,1,46.5,46.5v648A46.6,46.6,0,0,1,398.12,741Z"/><rect class="cls-4" x="444.12" y="145" width="3" height="47.5"/><rect class="cls-4" x="77.62" y="90" width="2" height="28"/><rect class="cls-5" x="75.62" y="148" width="4" height="46"/><rect class="cls-5" x="75.62" y="206" width="4" height="46"/><circle class="cls-6" cx="218.12" cy="43.5" r="5.5"/><circle class="cls-7" cx="267.62" cy="696" r="23"/><path class="cls-6" d="M287.12,47h-42a2.48,2.48,0,0,1-2.5-2.5h0a2.48,2.48,0,0,1,2.5-2.5h42a2.48,2.48,0,0,1,2.5,2.5h0A2.48,2.48,0,0,1,287.12,47Z"/><circle class="cls-6" cx="267.62" cy="22" r="4"/><rect class="cls-8" x="103.12" y="85.8" width="324.5" height="571.7"/><polygon class="cls-9" points="381.22 89.4 381.22 98.5 406.72 98.5 406.72 95.5 409.72 95.5 409.72 92.4 405.72 92.4 405.72 89.4 381.22 89.4"/><text class="cls-10" transform="translate(256.91 95.42)">21:37</text><text class="cls-10" transform="translate(139.58 95.2)">TDC 4G</text><ellipse class="cls-11" cx="268.42" cy="239.1" rx="74" ry="73.6"/><path class="cls-11" d="M268.62,501.6h-.5a11.57,11.57,0,0,1-11.5-11.5v-177a11.57,11.57,0,0,1,11.5-11.5h.5a11.57,11.57,0,0,1,11.5,11.5v177A11.44,11.44,0,0,1,268.62,501.6Z"/><path class="cls-11" d="M195.82,658l57.7-172.2a11.76,11.76,0,0,1,14.8-7.4h0a11.67,11.67,0,0,1,7.4,14.8l-55.1,164.7Z"/><path class="cls-11" d="M339.32,657.9l-54.7-163.2a11.76,11.76,0,0,0-14.8-7.4h0a11.67,11.67,0,0,0-7.4,14.8L314.62,658Z"/><path class="cls-12" d="M342.62,466.3s47.7-5.8,12.2,28.1c0,0-18.8,13.2-35.1,13.8,0,0-31.3,3.8-36.4.3a29.64,29.64,0,0,1-7.4-7.2s4-2.9,6.7-4.4,9.7-.1,9.7-.1.9-5.9-7.2-11.1l5.5-5.6C290.62,480.2,321.22,478.4,342.62,466.3Z"/><path class="cls-13" d="M276.62,502.3l5.8-2.9s-.2-5.8,13.2-1.4c0,0,2-5.1-9.2-13.1,0,0,5.1-.7,6.3-10.9l-4.2,5.8s-14-2.2-21,9.5c0,0-11,.7-2,6.6,0,0-.3,4,1.7,5.8s18,11.7,19.4,10.2S276.62,502.3,276.62,502.3Z"/><polyline class="cls-11" points="256.72 340.2 103.62 380.8 103.62 398.1 256.72 357.4"/><path class="cls-11" d="M280.12,340.2s129.6,34.5,129.6,41.6-129.6,92.1-129.6,92.1v-20l102-68-102-27.4"/><ellipse class="cls-5" cx="243.42" cy="225.9" rx="17.3" ry="16.8"/><ellipse class="cls-5" cx="295.52" cy="225.9" rx="17.3" ry="16.8"/><ellipse class="cls-14" cx="243.42" cy="225.9" rx="8.9" ry="8.6"/><ellipse class="cls-14" cx="295.52" cy="225.9" rx="8.9" ry="8.6"/><path d="M245.52,268.1c.6-3,56-10.1,57.1-9.1s-17.3,16.2-28.6,17.3C265.52,277.5,245.12,269.5,245.52,268.1Z"/><polygon class="cls-15" points="118.62 453 395.22 453 395.62 365 118.82 365 118.62 453"/><rect class="cls-16" x="113.32" y="368.4" width="284.2" height="98.1"/><g class="cls-17"><text class="cls-18" transform="translate(113.28 393.99)"> </text><text class="cls-18" transform="translate(113.28 417.99)"><tspan xml:space="preserve">   Ikke videresend</tspan></text><text class="cls-19" transform="translate(370.68 417.99)"> </text></g><polygon class="cls-15" points="118.62 573 395.22 573 395.62 496 118.82 496 118.62 573"/><rect class="cls-16" x="109.02" y="495.9" width="295.6" height="94.7"/><g class="cls-17"><text class="cls-20" transform="translate(109 521.47)"> </text><text class="cls-20" transform="translate(109 545.47)"> </text><text class="cls-18" transform="translate(145 545.47)"><tspan class="cls-21">V</tspan><tspan x="23.36" y="0">ideresend</tspan></text><text class="cls-19" transform="translate(314.2 545.47)"> </text></g><path class="cls-1" d="M372.12,650.5c-7.3-30.5,19-42,19-42-19,2-31-28-31-28-15-35,31-53,31-53-15,10-25-30-25-30-18-33,31-47,31-47-45-18-24-60-15-67s88-42,88-42c30-9,37,25,37,25,22,39-28,52-28,52,18,6,19,28,19,28,20,34-29,50-29,50,22,4,24,24,24,24,23,45-35,58-35,58,17-3,26,21,26,21,9,29-10,41-10,41l-39,16S382.12,692.5,372.12,650.5Z"/><path class="cls-2" d="M404.42,469.5l8.5,17.7a12,12,0,0,1-5.6,16l-23.4,11.3a12,12,0,0,1-16-5.6l-8.5-17.7a12,12,0,0,1,5.6-16l23.4-11.3A11.9,11.9,0,0,1,404.42,469.5Z"/><path class="cls-2" d="M422,391l9.4,19.5a12,12,0,0,1-5.6,16l-26.6,12.8a12,12,0,0,1-16-5.6l-9.4-19.5a12,12,0,0,1,5.6-16L406,385.4A12,12,0,0,1,422,391Z"/><path class="cls-2" d="M404.42,545.5l8.5,17.7a12,12,0,0,1-5.6,16l-23.4,11.3a12,12,0,0,1-16-5.6l-8.5-17.7a12,12,0,0,1,5.6-16l23.4-11.3A11.9,11.9,0,0,1,404.42,545.5Z"/><path class="cls-2" d="M420.12,621.6l6.8,14.1a12,12,0,0,1-5.6,16l-21.1,10.2a12,12,0,0,1-16-5.6l-6.8-14.1a12,12,0,0,1,5.6-16l21.1-10.2A11.9,11.9,0,0,1,420.12,621.6Z"/></g></g></g></svg>