<?xml version="1.0" encoding="utf-8"?>
<!-- Generator: Adobe Illustrator 22.0.1, SVG Export Plug-In . SVG Version: 6.00 Build 0)  -->
<svg version="1.1" xmlns="http://www.w3.org/2000/svg" xmlns:xlink="http://www.w3.org/1999/xlink" x="0px" y="0px"
	 viewBox="0 0 1440 900" style="enable-background:new 0 0 1440 900;" xml:space="preserve">
<style type="text/css">
	.st0{fill:#A67C52;}
	.st1{fill:#CEB699;}
	.st2{fill:#DCDFE7;}
	.st3{fill:#FEFDFF;}
	.st4{fill:#FFFFFF;}
	.st5{fill:#A1A5B4;}
	.st6{fill:none;stroke:#A1A5B4;stroke-width:2;stroke-miterlimit:10;}
	.st7{fill:#ADE4FF;}
	.st8{fill:#000309;}
	.st9{font-family:'MyriadPro-Regular';}
	.st10{font-size:12.1851px;}
	.st11{fill:#A5E5FF;stroke:#000000;stroke-miterlimit:10;}
	.st12{fill:#0073D6;}
	.st13{font-size:12.16px;}
	.st14{display:none;fill:#F7FF0D;}
	.st15{display:none;fill:#F90000;}
	.st16{display:none;fill:#F7F6F5;}
	.st17{display:none;fill:#FFFFFF;stroke:#000000;stroke-width:2;stroke-miterlimit:10;}
	.st18{fill:#CECECE;}
	.st19{fill:none;}
	.st20{font-family:'SegoeUISymbol';}
	.st21{font-size:18px;}
	.st22{fill:#EFEFEF;}
	.st23{fill:none;stroke:#3EB2E5;stroke-width:4;stroke-linecap:round;stroke-miterlimit:10;}
	.st24{fill:none;stroke:#3EB2E5;stroke-linecap:round;stroke-miterlimit:10;}
	.st25{fill:none;stroke:#3EB2E5;stroke-miterlimit:10;}
	.st26{font-family:'BellMT';}
	.st27{fill:#989B9B;}
	.st28{fill:none;stroke:#CECECE;stroke-width:2;stroke-miterlimit:10;}
	.st29{fill:#3EB2E5;stroke:#3EB2E5;stroke-miterlimit:10;}
	.st30{fill:none;stroke:#FFFFFF;stroke-width:2;stroke-linecap:round;stroke-miterlimit:10;}
	.st31{fill:#D3DADD;stroke:#D3DADD;stroke-miterlimit:10;}
	.st32{font-family:'ArialMT';}
	.st33{fill:#C3C7C9;}
	.st34{font-size:21px;}
	.st35{stroke:#000000;stroke-miterlimit:10;}
	.st36{font-size:17px;}
	.st37{fill:none;stroke:#000000;stroke-miterlimit:10;}
</style>
<g id="Layer_1">
	<path class="st0" d="M632.5,790.5c18,86-78,105-78,105v175h-211v-176c-47-20-55-99-55-99l1-110c4-28-30-86-30-86
		c-20-21-26-55-26-55c22-38,82,5,82,5L632.5,790.5z"/>
	<path class="st1" d="M233.5,549.1c0,0,42,6.4,26,51.4C258.7,601.7,226,553.6,233.5,549.1z"/>
	<path class="st2" d="M630.5,806h-272c-25.6,0-46.5-20.9-46.5-46.5v-648c0-25.6,20.9-46.5,46.5-46.5h272c25.6,0,46.5,20.9,46.5,46.5
		v648C677,785.1,656.1,806,630.5,806z"/>
	<rect x="676.5" y="210" class="st3" width="3" height="47.5"/>
	<rect x="310" y="155" class="st3" width="2" height="28"/>
	<rect x="308" y="213" class="st4" width="4" height="46"/>
	<rect x="308" y="271" class="st4" width="4" height="46"/>
	<circle class="st5" cx="450.5" cy="108.5" r="5.5"/>
	<circle class="st6" cx="500" cy="761" r="23"/>
	<path class="st5" d="M519.5,112h-42c-1.4,0-2.5-1.1-2.5-2.5l0,0c0-1.4,1.1-2.5,2.5-2.5h42c1.4,0,2.5,1.1,2.5,2.5l0,0
		C522,110.9,520.9,112,519.5,112z"/>
	<circle class="st5" cx="500" cy="87" r="4"/>
	<rect x="335.5" y="150.8" class="st7" width="324.5" height="571.7"/>
	<polygon class="st8" points="613.6,154.4 613.6,163.5 639.1,163.5 639.1,160.5 642.1,160.5 642.1,157.4 638.1,157.4 638.1,154.4
		"/>
	<text transform="matrix(1.0049 0 0 1 489.2891 160.418)" class="st9 st10">21:37</text>
	<text transform="matrix(1.0049 0 0 1 371.9668 160.1987)" class="st9 st10">TDC 4G</text>
	<path class="st11" d="M658,722H336V152.5h322V722z"/>
	<path class="st12" d="M659,718.9H337V152h322V718.9z M660,151H336v568.9h324V151z"/>
	<text transform="matrix(1.0023 0 0 1 491.0405 163.6064)" class="st9 st13">21:37</text>
	<text transform="matrix(1.0023 0 0 1 374.2661 164.3887)" class="st9 st13">TDC 4G</text>
	<polygon class="st8" points="624.5,155.5 624.5,164.6 649.8,164.6 649.8,161.6 652.9,161.6 652.9,158.5 648.8,158.5 648.8,155.5
		"/>
	<path class="st14" d="M434.4,339.8c0,0,3-18.3,25-18.3h98.1c0,0,17,0.8,20,18.3v102.3c0,0,0.9,16.3-17,19.6c-0.7,0.1-1.3,0.2-2,0.3
		c-20,2.3-101.1,0-101.1,0s-16,1.5-23-16.8V339.8z"/>
	<circle class="st15" cx="571.5" cy="338.5" r="25.5"/>
	<rect x="570" y="323" class="st16" width="4" height="30"/>
	<rect x="563" y="350" class="st16" width="17" height="3"/>

		<rect x="562.3" y="325.2" transform="matrix(0.8584 -0.5129 0.5129 0.8584 -87.2911 337.0243)" class="st16" width="9.1" height="2.8"/>
	<path class="st17" d="M537.1,385.5c0,0,30.9-5.3,1.7,10.6c0,0,0,5.3,1.7,8c1.7,2.7,8.6,18.6,20.6,15.9c12-2.7-6.9,11.9-13.7,8
		l-1.7,6.6h-17.2c0,0-10.3,10.6-18.9,9.3c-8.6-1.3-12,0-24-9.3h-15.4V428c0,0-18.9-1.3-15.4-8c0,0,25.7-8,22.3-23.9
		c0,0-28.5-13,0.7-12c0.3,0,0.7,0,1,0v-19.9c0,0,1.7-10.6,12-15.9c10.3-5.3,24-4,24-4s8.6,2.7,15.4,8s5.1,4,6.9,13.3
		C538.8,374.9,537.1,385.5,537.1,385.5z"/>
</g>
<g id="Layer_2">

		<image style="overflow:visible;opacity:0.37;" width="640" height="1136" xlink:href="23601001_10155354744613220_333126796_o.jpg"  transform="matrix(0.4719 4.283549e-05 -4.492560e-05 0.4949 340.0255 155.9863)">
	</image>
	<rect x="335" y="151" class="st4" width="325" height="571"/>
	<path class="st18" d="M363,345h175c6.6,0,12-5.4,12-12v-93c0-6.6-5.4-12-12-12H363c-6.6,0-12,5.4-12,12v93
		C351,339.6,356.4,345,363,345z"/>
	<rect x="359" y="235" class="st19" width="183" height="119"/>
	<text transform="matrix(1 0 0 1 359 248.3242)"><tspan x="0" y="0" class="st20 st21">Jeg sætter virkelig pris </tspan><tspan x="0" y="21.6" class="st20 st21">på, at du ikke videre- </tspan><tspan x="0" y="43.2" class="st20 st21">sender mit billede. </tspan><tspan x="0" y="64.8" class="st20 st21">Tak! </tspan><tspan x="0" y="86.4" class="st20 st21">Måske sender jeg et </tspan></text>
	<path class="st18" d="M347,345c0,0,4.7-3.2,4.4-9.1l2.3,4.6C353.6,340.4,354,343,347,345z"/>
	<rect x="335" y="151" class="st22" width="325" height="69"/>
	<text transform="matrix(1.0023 0 0 1 491.0405 172.6064)" class="st9 st13">21:37</text>
	<text transform="matrix(1.0023 0 0 1 374.2661 172.3887)" class="st9 st13">TDC 4G</text>
	<polygon class="st8" points="613.5,163.5 613.5,172.6 638.8,172.6 638.8,169.6 641.9,169.6 641.9,166.5 637.8,166.5 637.8,163.5
		"/>
	<rect x="405" y="189.5" class="st19" width="172.5" height="26.5"/>
	<text transform="matrix(1 0 0 1 405 202.8242)" class="st20 st21">Ham den flotte </text>
	<polyline class="st23" points="361,189 354,197 361,205 	"/>
	<circle class="st24" cx="616.8" cy="196.8" r="10.8"/>
	<rect x="614.5" y="191.5" class="st19" width="6.5" height="15.5"/>
	<text transform="matrix(1 0 0 1 614.5 203.5239)" class="st25 st26 st21">i</text>
	<rect x="334.5" y="504.5" class="st27" width="324" height="217.5"/>
	<path class="st28" d="M469.5,465.5h139c0,0,17,1,18,19c0,0,1,10-19,16h-138c0,0-13-6-14-18S469.5,465.5,469.5,465.5z"/>
	<ellipse class="st29" cx="608.5" cy="483" rx="12" ry="11.5"/>
	<polyline class="st30" points="604.2,482.2 608.8,475 613.2,481.8 	"/>
	<line class="st30" x1="609" y1="490" x2="609" y2="476"/>
	<rect x="471" y="474.3" class="st19" width="80.7" height="20.3"/>
	<text transform="matrix(1 0 0 1 471 487.2207)" class="st31 st32 st21">Skriv</text>
	<g>
		<g>
			<path class="st4" d="M354.5,516.5h8c0,0,3-1,3,4s0,30,0,30s1,3-3,4h-8V516.5z"/>
			<path class="st4" d="M354.5,516.5h-8c0,0-3-1-3,4s0,30,0,30s-1,3,3,4h8V516.5z"/>
		</g>
		<g>
			<path class="st4" d="M381.5,516.5h8c0,0,3-1,3,4s0,30,0,30s1,3-3,4h-8V516.5z"/>
			<path class="st4" d="M381.5,516.5h-8c0,0-3-1-3,4s0,30,0,30s-1,3,3,4h8V516.5z"/>
		</g>
		<g>
			<path class="st4" d="M518.5,516.5h8c0,0,3-1,3,4s0,30,0,30s1,3-3,4h-8V516.5z"/>
			<path class="st4" d="M518.5,516.5h-8c0,0-3-1-3,4s0,30,0,30s-1,3,3,4h8V516.5z"/>
		</g>
		<g>
			<path class="st4" d="M490.5,516.5h8c0,0,3-1,3,4s0,30,0,30s1,3-3,4h-8V516.5z"/>
			<path class="st4" d="M490.5,516.5h-8c0,0-3-1-3,4s0,30,0,30s-1,3,3,4h8V516.5z"/>
		</g>
		<g>
			<path class="st4" d="M463.5,516.5h8c0,0,3-1,3,4s0,30,0,30s1,3-3,4h-8V516.5z"/>
			<path class="st4" d="M463.5,516.5h-8c0,0-3-1-3,4s0,30,0,30s-1,3,3,4h8V516.5z"/>
		</g>
		<g>
			<path class="st4" d="M436.5,516.5h8c0,0,3-1,3,4s0,30,0,30s1,3-3,4h-8V516.5z"/>
			<path class="st4" d="M436.5,516.5h-8c0,0-3-1-3,4s0,30,0,30s-1,3,3,4h8V516.5z"/>
		</g>
		<g>
			<path class="st4" d="M408.5,516.5h8c0,0,3-1,3,4s0,30,0,30s1,3-3,4h-8V516.5z"/>
			<path class="st4" d="M408.5,516.5h-8c0,0-3-1-3,4s0,30,0,30s-1,3,3,4h8V516.5z"/>
		</g>
		<g>
			<path class="st4" d="M627.5,516.5h8c0,0,3-1,3,4s0,30,0,30s1,3-3,4h-8V516.5z"/>
			<path class="st4" d="M627.5,516.5h-8c0,0-3-1-3,4s0,30,0,30s-1,3,3,4h8V516.5z"/>
		</g>
		<g>
			<path class="st4" d="M600.5,516.5h8c0,0,3-1,3,4s0,30,0,30s1,3-3,4h-8V516.5z"/>
			<path class="st4" d="M600.5,516.5h-8c0,0-3-1-3,4s0,30,0,30s-1,3,3,4h8V516.5z"/>
		</g>
		<g>
			<path class="st4" d="M573.5,516.5h8c0,0,3-1,3,4s0,30,0,30s1,3-3,4h-8V516.5z"/>
			<path class="st4" d="M573.5,516.5h-8c0,0-3-1-3,4s0,30,0,30s-1,3,3,4h8V516.5z"/>
		</g>
		<g>
			<path class="st4" d="M545.5,516.5h8c0,0,3-1,3,4s0,30,0,30s1,3-3,4h-8V516.5z"/>
			<path class="st4" d="M545.5,516.5h-8c0,0-3-1-3,4s0,30,0,30s-1,3,3,4h8V516.5z"/>
		</g>
		<g>
			<path class="st4" d="M518.5,570.5h8c0,0,3-1,3,4s0,30,0,30s1,3-3,4h-8V570.5z"/>
			<path class="st4" d="M518.5,570.5h-8c0,0-3-1-3,4s0,30,0,30s-1,3,3,4h8V570.5z"/>
		</g>
		<g>
			<path class="st4" d="M490.5,570.5h8c0,0,3-1,3,4s0,30,0,30s1,3-3,4h-8V570.5z"/>
			<path class="st4" d="M490.5,570.5h-8c0,0-3-1-3,4s0,30,0,30s-1,3,3,4h8V570.5z"/>
		</g>
		<g>
			<path class="st4" d="M463.5,570.5h8c0,0,3-1,3,4s0,30,0,30s1,3-3,4h-8V570.5z"/>
			<path class="st4" d="M463.5,570.5h-8c0,0-3-1-3,4s0,30,0,30s-1,3,3,4h8V570.5z"/>
		</g>
		<g>
			<path class="st4" d="M436.5,570.5h8c0,0,3-1,3,4s0,30,0,30s1,3-3,4h-8V570.5z"/>
			<path class="st4" d="M436.5,570.5h-8c0,0-3-1-3,4s0,30,0,30s-1,3,3,4h8V570.5z"/>
		</g>
		<g>
			<path class="st4" d="M408.5,570.5h8c0,0,3-1,3,4s0,30,0,30s1,3-3,4h-8V570.5z"/>
			<path class="st4" d="M408.5,570.5h-8c0,0-3-1-3,4s0,30,0,30s-1,3,3,4h8V570.5z"/>
		</g>
		<g>
			<path class="st4" d="M381.5,570.5h8c0,0,3-1,3,4s0,30,0,30s1,3-3,4h-8V570.5z"/>
			<path class="st4" d="M381.5,570.5h-8c0,0-3-1-3,4s0,30,0,30s-1,3,3,4h8V570.5z"/>
		</g>
		<g>
			<path class="st4" d="M354.5,570.5h8c0,0,3-1,3,4s0,30,0,30s1,3-3,4h-8V570.5z"/>
			<path class="st4" d="M354.5,570.5h-8c0,0-3-1-3,4s0,30,0,30s-1,3,3,4h8V570.5z"/>
		</g>
		<g>
			<path class="st4" d="M627.5,570.5h8c0,0,3-1,3,4s0,30,0,30s1,3-3,4h-8V570.5z"/>
			<path class="st4" d="M627.5,570.5h-8c0,0-3-1-3,4s0,30,0,30s-1,3,3,4h8V570.5z"/>
		</g>
		<g>
			<path class="st4" d="M600.5,570.5h8c0,0,3-1,3,4s0,30,0,30s1,3-3,4h-8V570.5z"/>
			<path class="st4" d="M600.5,570.5h-8c0,0-3-1-3,4s0,30,0,30s-1,3,3,4h8V570.5z"/>
		</g>
		<g>
			<path class="st4" d="M573.5,570.5h8c0,0,3-1,3,4s0,30,0,30s1,3-3,4h-8V570.5z"/>
			<path class="st4" d="M573.5,570.5h-8c0,0-3-1-3,4s0,30,0,30s-1,3,3,4h8V570.5z"/>
		</g>
		<g>
			<path class="st4" d="M545.5,570.5h8c0,0,3-1,3,4s0,30,0,30s1,3-3,4h-8V570.5z"/>
			<path class="st4" d="M545.5,570.5h-8c0,0-3-1-3,4s0,30,0,30s-1,3,3,4h8V570.5z"/>
		</g>
		<g>
			<path class="st4" d="M545,623h8c0,0,3-1,3,4s0,30,0,30s1,3-3,4h-8V623z"/>
			<path class="st4" d="M545,623h-8c0,0-3-1-3,4s0,30,0,30s-1,3,3,4h8V623z"/>
		</g>
		<g>
			<path class="st4" d="M519,623h8c0,0,3-1,3,4s0,30,0,30s1,3-3,4h-8V623z"/>
			<path class="st4" d="M519,623h-8c0,0-3-1-3,4s0,30,0,30s-1,3,3,4h8V623z"/>
		</g>
		<g>
			<path class="st4" d="M491,623h8c0,0,3-1,3,4s0,30,0,30s1,3-3,4h-8V623z"/>
			<path class="st4" d="M491,623h-8c0,0-3-1-3,4s0,30,0,30s-1,3,3,4h8V623z"/>
		</g>
		<g>
			<path class="st4" d="M464,623h8c0,0,3-1,3,4s0,30,0,30s1,3-3,4h-8V623z"/>
			<path class="st4" d="M464,623h-8c0,0-3-1-3,4s0,30,0,30s-1,3,3,4h8V623z"/>
		</g>
		<g>
			<path class="st4" d="M436,623h8c0,0,3-1,3,4s0,30,0,30s1,3-3,4h-8V623z"/>
			<path class="st4" d="M436,623h-8c0,0-3-1-3,4s0,30,0,30s-1,3,3,4h8V623z"/>
		</g>
		<g>
			<path class="st4" d="M409,623h8c0,0,3-1,3,4s0,30,0,30s1,3-3,4h-8V623z"/>
			<path class="st4" d="M409,623h-8c0,0-3-1-3,4s0,30,0,30s-1,3,3,4h8V623z"/>
		</g>
		<g>
			<path class="st4" d="M573,624h8c0,0,3-1,3,4s0,30,0,30s1,3-3,4h-8V624z"/>
			<path class="st4" d="M573,624h-8c0,0-3-1-3,4s0,30,0,30s-1,3,3,4h8V624z"/>
		</g>
	</g>
	<g>
		<g>
			<path class="st4" d="M431,677h8c0,0,3-1,3,4s0,30,0,30s1,3-3,4h-8V677z"/>
			<path class="st4" d="M431,677h-8c0,0-3-1-3,4s0,30,0,30s-1,3,3,4h8V677z"/>
		</g>
		<path class="st33" d="M358,677h-11c0,0-4,0-4,5s0,27,0,27s0,5,5,6h10V677z"/>
		<path class="st33" d="M358,677h11c0,0,4,0,4,5s0,27,0,27s0,5-5,6h-10V677z"/>
		<path class="st33" d="M397,677h-11c0,0-4,0-4,5s0,27,0,27s0,5,5,6h10V677z"/>
		<path class="st33" d="M397,677h11c0,0,4,0,4,5s0,27,0,27s0,5-5,6h-10V677z"/>
		<path class="st33" d="M622,624h-11.7c0,0-4.3,0-4.3,5s0,27,0,27s0,5,5.3,6H622V624z"/>
		<path class="st33" d="M622,624h11.7c0,0,4.3,0,4.3,5s0,27,0,27s0,5-5.3,6H622V624z"/>
		<path class="st33" d="M603,677h-28c0,0-6-1-6,5s0,14,0,14v13c0,0,0,6,6,6s28,0,28,0V677z"/>
		<path class="st33" d="M603,677h29.6c0,0,6.4-1,6.4,5s0,14,0,14v13c0,0,0,6-6.4,6c-6.4,0-29.6,0-29.6,0V677z"/>
		<path class="st4" d="M504,677h-48c0,0-8-2-8,6s0,24,0,24s-2,9,6,7h50V677z"/>
		<path class="st4" d="M504,677h48c0,0,8-2,8,6s0,24,0,24s2,9-6,7h-50V677z"/>
		<path class="st4" d="M358,624h-12c0,0-3,1-3,4s0,27,0,27s-2,6,4,5h11V624z"/>
		<path class="st4" d="M356,624h15.1c0,0,3.8,1,3.8,4s0,27,0,27s2.5,6-5,5H356V624z"/>
	</g>
	<g>
		<rect x="346.3" y="527.7" class="st19" width="19.7" height="22.3"/>
		<text transform="matrix(1 0 0 1 346.3335 542.7031)" class="st32 st34">Q</text>
		<rect x="428.3" y="527.7" class="st19" width="19.7" height="22.3"/>
		<text transform="matrix(1 0 0 1 428.3335 542.7031)" class="st32 st34">R</text>
		<rect x="456.3" y="527.7" class="st19" width="19.7" height="22.3"/>
		<text transform="matrix(1 0 0 1 456.3335 542.7031)" class="st32 st34">T</text>
		<rect x="483.3" y="527.7" class="st19" width="19.7" height="22.3"/>
		<text transform="matrix(1 0 0 1 483.3335 542.7031)" class="st32 st34">Y</text>
		<rect x="511.3" y="526.7" class="st19" width="19.7" height="22.3"/>
		<text transform="matrix(1 0 0 1 511.3335 541.7031)" class="st32 st34">U</text>
		<rect x="536.3" y="526.7" class="st19" width="19.7" height="22.3"/>
		<text transform="matrix(1 0 0 1 536.3335 541.7031)" class="st32 st34"> I</text>
		<rect x="565.3" y="526.7" class="st19" width="19.7" height="22.3"/>
		<text transform="matrix(1 0 0 1 565.3335 541.7031)" class="st32 st34">O</text>
		<rect x="593.3" y="526.7" class="st19" width="19.7" height="22.3"/>
		<text transform="matrix(1 0 0 1 593.3335 541.7031)" class="st32 st34">P</text>
		<rect x="620.3" y="527.7" class="st19" width="19.7" height="22.3"/>
		<text transform="matrix(1 0 0 1 620.3335 542.7031)" class="st32 st34">Å</text>
		<rect x="619.3" y="578.7" class="st19" width="19.7" height="22.3"/>
		<text transform="matrix(1 0 0 1 619.3335 593.7031)" class="st32 st34">Ø</text>
		<rect x="590" y="579.7" class="st19" width="23" height="22.3"/>
		<text transform="matrix(1 0 0 1 590 594.7031)" class="st32 st34">Æ</text>
		<rect x="567.3" y="579.7" class="st19" width="19.7" height="22.3"/>
		<text transform="matrix(1 0 0 1 567.3335 594.7031)" class="st32 st34">L</text>
		<rect x="538.3" y="579.7" class="st19" width="19.7" height="22.3"/>
		<text transform="matrix(1 0 0 1 538.3335 594.7031)" class="st32 st34">K</text>
		<rect x="512.3" y="579.7" class="st19" width="19.7" height="22.3"/>
		<text transform="matrix(1 0 0 1 512.3335 594.7031)" class="st32 st34">J</text>
		<rect x="482.3" y="579.7" class="st19" width="19.7" height="22.3"/>
		<text transform="matrix(1 0 0 1 482.3335 594.7031)" class="st32 st34">H</text>
		<rect x="455.3" y="579.7" class="st19" width="19.7" height="22.3"/>
		<text transform="matrix(1 0 0 1 455.3335 594.7031)" class="st32 st34">G</text>
		<rect x="429.3" y="579.7" class="st19" width="19.7" height="22.3"/>
		<text transform="matrix(1 0 0 1 429.3335 594.7031)" class="st32 st34">F</text>
		<rect x="400.3" y="579.7" class="st19" width="19.7" height="22.3"/>
		<text transform="matrix(1 0 0 1 400.3335 594.7031)" class="st32 st34">D</text>
		<rect x="373.3" y="579.7" class="st19" width="19.7" height="22.3"/>
		<text transform="matrix(1 0 0 1 373.3335 594.7031)" class="st32 st34">S</text>
		<rect x="347.3" y="579.7" class="st19" width="19.7" height="22.3"/>
		<text transform="matrix(1 0 0 1 347.3335 594.7031)" class="st32 st34">A</text>
		<rect x="372" y="527.7" class="st19" width="23" height="22.3"/>
		<text transform="matrix(1 0 0 1 372 542.7031)" class="st32 st34">W</text>
		<rect x="401.3" y="527.7" class="st19" width="19.7" height="22.3"/>
		<text transform="matrix(1 0 0 1 401.3335 542.7031)" class="st32 st34">E</text>
		<rect x="564.3" y="633.7" class="st19" width="19.7" height="22.3"/>
		<text transform="matrix(1 0 0 1 564.3335 648.7031)" class="st32 st34">M</text>
		<rect x="538.3" y="633.7" class="st19" width="19.7" height="22.3"/>
		<text transform="matrix(1 0 0 1 538.3335 648.7031)" class="st32 st34">N</text>
		<rect x="512.3" y="633.7" class="st19" width="19.7" height="22.3"/>
		<text transform="matrix(1 0 0 1 512.3335 648.7031)" class="st32 st34">B</text>
		<rect x="483.3" y="633.7" class="st19" width="19.7" height="22.3"/>
		<text transform="matrix(1 0 0 1 483.3335 648.7031)" class="st32 st34">V</text>
		<rect x="455.3" y="633.7" class="st19" width="19.7" height="22.3"/>
		<text transform="matrix(1 0 0 1 455.3335 648.7031)" class="st32 st34">C</text>
		<rect x="428.3" y="633.7" class="st19" width="19.7" height="22.3"/>
		<text transform="matrix(1 0 0 1 428.3335 648.7031)" class="st32 st34">X</text>
		<rect x="402.3" y="633.7" class="st19" width="19.7" height="22.3"/>
		<text transform="matrix(1 0 0 1 402.3335 648.7031)" class="st32 st34">Z</text>
	</g>
	<polygon points="360,634 369,644 364,644 364,649 360,649 	"/>
	<polygon points="360,634 351,644 356,644 356,649 360,649 	"/>
	<rect x="344.2" y="689.3" class="st19" width="29.5" height="20.3"/>
	<text transform="matrix(1 0 0 1 344.1665 701.5049)" class="st35 st32 st36">123</text>
	<path class="st37" d="M427.5,689.5c0,0,0-2,2-3c0,0,3,0,3,3s0,7,0,7s0,2-2,2s-3-2-3-2V689.5z"/>
	<path class="st37" d="M424.5,694.5c0,0,0,7,6,7c0,0,4,1,5-7"/>
	<line class="st37" x1="427.5" y1="704.5" x2="434" y2="704.5"/>
	<line class="st37" x1="430.5" y1="704" x2="430.5" y2="702"/>
	<rect x="464" y="688" class="st19" width="94" height="18.7"/>
	<text transform="matrix(1 0 0 1 464 700.584)" class="st20 st36">Mellemrum</text>
	<rect x="583" y="687.7" class="st19" width="43.7" height="18.7"/>
	<text transform="matrix(1 0 0 1 583 700.251)" class="st20 st36">Retur</text>
	<circle class="st37" cx="396" cy="695" r="9.5"/>
	<path class="st37" d="M390,696c0,0,6,3,12,0c0,0,0,6-6,6C396,702,391,702,390,696z"/>
	<circle cx="399" cy="693" r="1"/>
	<circle cx="393" cy="693" r="1"/>

		<image style="overflow:visible;" width="512" height="512" xlink:href="../Desktop/camera.png"  transform="matrix(6.835938e-02 0 0 6.835938e-02 354 464)">
	</image>

		<image style="overflow:visible;" width="512" height="512" xlink:href="../Desktop/smirk.png"  transform="matrix(3.982205e-02 0 0 3.982205e-02 526 320)">
	</image>

		<image style="overflow:visible;" width="512" height="512" xlink:href="../Desktop/heart.png"  transform="matrix(4.101563e-02 0 0 4.101563e-02 532 186)">
	</image>
	<path class="st0" d="M604.5,715.5c-7.3-30.5,19-42,19-42c-19,2-31-28-31-28c-15-35,31-53,31-53c-15,10-25-30-25-30
		c-18-33,31-47,31-47c-45-18-24-60-15-67s88-42,88-42c30-9,37,25,37,25c22,39-28,52-28,52c18,6,19,28,19,28c20,34-29,50-29,50
		c22,4,24,24,24,24c23,45-35,58-35,58c17-3,26,21,26,21c9,29-10,41-10,41l-39,16C667.5,721.5,614.5,757.5,604.5,715.5z"/>
	<path class="st1" d="M636.8,534.5l8.5,17.7c2.9,5.9,0.3,13.2-5.6,16l-23.4,11.3c-5.9,2.9-13.2,0.3-16-5.6l-8.5-17.7
		c-2.9-5.9-0.3-13.2,5.6-16l23.4-11.3C626.8,526,634,528.5,636.8,534.5z"/>
	<path class="st1" d="M654.4,456l9.4,19.5c2.9,5.9,0.3,13.2-5.6,16l-26.6,12.8c-5.9,2.9-13.2,0.3-16-5.6l-9.4-19.5
		c-2.9-5.9-0.3-13.2,5.6-16l26.6-12.8C644.3,447.5,651.5,450.1,654.4,456z"/>
	<path class="st1" d="M636.8,610.5l8.5,17.7c2.9,5.9,0.3,13.2-5.6,16l-23.4,11.3c-5.9,2.9-13.2,0.3-16-5.6l-8.5-17.7
		c-2.9-5.9-0.3-13.2,5.6-16l23.4-11.3C626.8,602,634,604.5,636.8,610.5z"/>
	<path class="st1" d="M652.5,686.6l6.8,14.1c2.9,5.9,0.3,13.2-5.6,16l-21.1,10.2c-5.9,2.9-13.2,0.3-16-5.6l-6.8-14.1
		c-2.9-5.9-0.3-13.2,5.6-16l21.1-10.2C642.5,678.1,649.7,680.6,652.5,686.6z"/>
</g>
</svg>
