<svg id="Layer_1" data-name="Layer 1" xmlns="http://www.w3.org/2000/svg" xmlns:xlink="http://www.w3.org/1999/xlink" viewBox="0 0 1366 768"><defs><style>.cls-1,.cls-2,.cls-3{fill:none;}.cls-2{clip-path:url(#clip-path);}.cls-3,.cls-8{clip-path:url(#clip-path-2);}.cls-4{fill:#fbb03b;}.cls-5{fill:#333;}.cls-6{isolation:isolate;}.cls-7{fill:#fff;}.cls-9{fill:#1f2733;}.cls-10{fill:#da8e38;}</style><clipPath id="clip-path"><rect class="cls-3" x="32.06" y="27.85" width="168" height="109"/></clipPath><clipPath id="clip-path-2"><rect class="cls-2" x="32.06" y="27.85" width="168" height="109"/></clipPath></defs><title>startside_sex&amp;amp;samfund</title><rect class="cls-4" x="0.5" y="368.5" width="1365" height="399"/><path d="M1365,369V767H1V369H1365m1-1H0V768H1366V368Z"/><rect class="cls-5" x="0.5" y="0.5" width="1365" height="367"/><path d="M1365,1V367H1V1H1365m1-1H0V368H1366V0Z"/><rect class="cls-1" x="345" y="219" width="718" height="315"/><g class="cls-6"><path class="cls-7" d="M442.5,365.06v13h-12l-2.7,20.7H412.9l2.7-20.7h-9.7l-2.7,20.7H388.4l2.8-20.7H380.8v-13h12l1.2-9.6H383.8v-12.9h11.9l2.5-19.2h14.7l-2.5,19.2h9.7l2.6-19.2h14.8l-2.5,19.2h10.2v12.9H433.4l-1.3,9.6Zm-24-9.6h-9.7l-1.3,9.6h9.7Z"/><path class="cls-7" d="M451.5,398.76l12.8-75.4h19.4l15.1,40.2,15-40.2h19.4l12.8,75.4H526.5l-6.5-43.4-17.8,43.4h-7.8l-16.9-43.4-6.5,43.4Z"/><path class="cls-7" d="M555.5,327.76a9.72,9.72,0,0,1,.8-3.95,10.37,10.37,0,0,1,5.45-5.45,10.15,10.15,0,0,1,7.9,0,10.37,10.37,0,0,1,5.45,5.45,10.15,10.15,0,0,1,0,7.9,10.37,10.37,0,0,1-5.45,5.45,10.15,10.15,0,0,1-7.9,0,10.37,10.37,0,0,1-5.45-5.45A9.72,9.72,0,0,1,555.5,327.76Zm19.3,19.7v51.3H556.7v-51.3Z"/><path class="cls-7" d="M587.2,347.46h18.1V354a19.68,19.68,0,0,1,7.5-6,23.52,23.52,0,0,1,8.9-1.55,22.19,22.19,0,0,1,9.25,1.75,18.58,18.58,0,0,1,6.55,4.95,14.39,14.39,0,0,1,3,5.8,30.38,30.38,0,0,1,.8,7.3v32.6H623.2v-25.9a28.34,28.34,0,0,0-.55-6.15A7.64,7.64,0,0,0,620.7,363a6.82,6.82,0,0,0-2.7-1.7,10.16,10.16,0,0,0-3.2-.5q-4.6,0-7,2.75c-1.64,1.83-2.45,4.45-2.45,7.85v27.4H587.2Z"/><path class="cls-7" d="M692,356.56h38.9a109.1,109.1,0,0,1-.5,10.9,38.93,38.93,0,0,1-2,9.1A36.32,36.32,0,0,1,722.7,387a33.57,33.57,0,0,1-8.45,7.6,40.12,40.12,0,0,1-10.65,4.65,46,46,0,0,1-12.2,1.6,42.89,42.89,0,0,1-16-2.9,36,36,0,0,1-12.45-8.15,36.81,36.81,0,0,1-8.1-12.6A43.79,43.79,0,0,1,651.9,361a44.3,44.3,0,0,1,2.85-16.15,35.47,35.47,0,0,1,8.1-12.55,36.65,36.65,0,0,1,12.65-8.1,44.93,44.93,0,0,1,16.5-2.9,40.94,40.94,0,0,1,20.7,5.1q8.89,5.1,14.09,15.8l-18.59,7.7q-2.61-6.19-6.75-8.9a17,17,0,0,0-9.45-2.7,19,19,0,0,0-8,1.65,17.38,17.38,0,0,0-6.15,4.7,22.37,22.37,0,0,0-4,7.35,32.41,32.41,0,0,0-.2,18.5,20,20,0,0,0,3.75,7.1,16.83,16.83,0,0,0,6.2,4.65,20.91,20.91,0,0,0,8.6,1.65,23.89,23.89,0,0,0,5.59-.65,14.66,14.66,0,0,0,4.86-2.1,12.14,12.14,0,0,0,3.55-3.75,15.16,15.16,0,0,0,1.9-5.6H692Z"/><path class="cls-7" d="M741.59,347.46h18.1v8.4a20.79,20.79,0,0,1,7.1-7.05,19.14,19.14,0,0,1,9.8-2.45h1.55a11.31,11.31,0,0,1,2,.2v17.3a17.2,17.2,0,0,0-7.8-1.8q-6.3,0-9.45,3.75t-3.15,10.95v22h-18.1Z"/><path class="cls-7" d="M837.59,376.06a11.63,11.63,0,0,0,3.15,8.45,11.22,11.22,0,0,0,8.45,3.25q6.21,0,8.3-4.8h17.6a22.67,22.67,0,0,1-9.3,12.85q-6.9,4.65-17.2,4.65-15.39,0-20.3-10-8,9.71-21,9.7a30.58,30.58,0,0,1-8.6-1.15,20.47,20.47,0,0,1-6.7-3.3,15.3,15.3,0,0,1-4.35-5.2,14.94,14.94,0,0,1-1.55-6.85,15.42,15.42,0,0,1,5.85-12.4,19.25,19.25,0,0,1,6.7-3.35,31.15,31.15,0,0,1,8.75-1.15,36.2,36.2,0,0,1,13.2,2.7v-1.4q0-9.19-12.4-9.2-4.8,0-14.1,2.9v-13.7a54.09,54.09,0,0,1,15.1-2.4q7.11,0,11.5,2.15a19.39,19.39,0,0,1,7.6,6.95q6.4-9.11,19.6-9.1,13.71,0,20.85,7.75t7.15,22.65Zm-33.8,6.3a5,5,0,0,0,2.2,4.2,9.82,9.82,0,0,0,5.9,1.6,12.35,12.35,0,0,0,6.4-1.65q2.81-1.65,2.8-4.05t-2.85-3.9a13.54,13.54,0,0,0-6.75-1.6,9.67,9.67,0,0,0-5.6,1.45A4.56,4.56,0,0,0,803.79,382.36Zm55.2-16.8q-2.4-8.4-10.5-8.4-7.69,0-10.4,8.4Z"/><path class="cls-7" d="M886.19,347.46h18.1V354a19.83,19.83,0,0,1,7.5-6,23.55,23.55,0,0,1,8.9-1.55,22.16,22.16,0,0,1,9.25,1.75,18.5,18.5,0,0,1,6.55,4.95,14.14,14.14,0,0,1,3,5.8,29.88,29.88,0,0,1,.8,7.3v32.6h-18.1v-25.9a27.72,27.72,0,0,0-.55-6.15,7.49,7.49,0,0,0-1.95-3.75,6.82,6.82,0,0,0-2.7-1.7,10.12,10.12,0,0,0-3.2-.5,9,9,0,0,0-7,2.75q-2.44,2.75-2.45,7.85v27.4h-18.1Z"/><path class="cls-7" d="M986.59,360.66a21.18,21.18,0,0,0-9.8-2.6,7.32,7.32,0,0,0-4,1,3.09,3.09,0,0,0-1.55,2.7,3.5,3.5,0,0,0,.25,1.45,2.54,2.54,0,0,0,1.1,1.05,9.84,9.84,0,0,0,2.5.9c1.1.27,2.55.6,4.35,1q7.5,1.5,11.2,5.35a13.62,13.62,0,0,1,3.7,9.85,17.86,17.86,0,0,1-1.8,8.1,17.23,17.23,0,0,1-5,6.05,23.8,23.8,0,0,1-7.7,3.8,34.35,34.35,0,0,1-9.9,1.35,40.26,40.26,0,0,1-20.5-5.9L956,382q7.6,5.21,14.4,5.2a7.11,7.11,0,0,0,4.1-1.1,3.28,3.28,0,0,0,1.6-2.8,4.55,4.55,0,0,0-.25-1.65,2.77,2.77,0,0,0-1.05-1.2,8.27,8.27,0,0,0-2.35-1c-1-.3-2.38-.62-4.05-1q-8.4-1.69-11.75-5t-3.35-9.25a18.15,18.15,0,0,1,1.6-7.75,16.08,16.08,0,0,1,4.6-5.85,21.66,21.66,0,0,1,7.25-3.7,32.08,32.08,0,0,1,9.45-1.3,42.85,42.85,0,0,1,16.5,3.3Z"/><path class="cls-7" d="M1019.79,376.16q0,11.7,11,11.7a9.83,9.83,0,0,0,8.9-4.8h17.5q-5.3,17.6-26.5,17.6a34.83,34.83,0,0,1-11.9-2,26.59,26.59,0,0,1-9.25-5.55,24.72,24.72,0,0,1-5.95-8.6,28.66,28.66,0,0,1-2.1-11.2,31.73,31.73,0,0,1,2-11.55,24.23,24.23,0,0,1,5.7-8.75,25.28,25.28,0,0,1,8.95-5.55,33.85,33.85,0,0,1,11.85-1.95,33.16,33.16,0,0,1,11.7,1.95,23.61,23.61,0,0,1,8.8,5.65,24.6,24.6,0,0,1,5.5,9,35.76,35.76,0,0,1,1.9,12.05v1.9Zm21.2-10.5a10.87,10.87,0,0,0-3.7-6.1,11.48,11.48,0,0,0-13.65-.1,10,10,0,0,0-3.35,6.2Z"/></g><g class="cls-6"><path class="cls-1" d="M442.5,365.06v13h-12l-2.7,20.7H412.9l2.7-20.7h-9.7l-2.7,20.7H388.4l2.8-20.7H380.8v-13h12l1.2-9.6H383.8v-12.9h11.9l2.5-19.2h14.7l-2.5,19.2h9.7l2.6-19.2h14.8l-2.5,19.2h10.2v12.9H433.4l-1.3,9.6Zm-24-9.6h-9.7l-1.3,9.6h9.7Z"/><path class="cls-1" d="M451.5,398.76l12.8-75.4h19.4l15.1,40.2,15-40.2h19.4l12.8,75.4H526.5l-6.5-43.4-17.8,43.4h-7.8l-16.9-43.4-6.5,43.4Z"/><path class="cls-1" d="M555.5,327.76a9.72,9.72,0,0,1,.8-3.95,10.37,10.37,0,0,1,5.45-5.45,10.15,10.15,0,0,1,7.9,0,10.37,10.37,0,0,1,5.45,5.45,10.15,10.15,0,0,1,0,7.9,10.37,10.37,0,0,1-5.45,5.45,10.15,10.15,0,0,1-7.9,0,10.37,10.37,0,0,1-5.45-5.45A9.72,9.72,0,0,1,555.5,327.76Zm19.3,19.7v51.3H556.7v-51.3Z"/><path class="cls-1" d="M587.2,347.46h18.1V354a19.68,19.68,0,0,1,7.5-6,23.52,23.52,0,0,1,8.9-1.55,22.19,22.19,0,0,1,9.25,1.75,18.58,18.58,0,0,1,6.55,4.95,14.39,14.39,0,0,1,3,5.8,30.38,30.38,0,0,1,.8,7.3v32.6H623.2v-25.9a28.34,28.34,0,0,0-.55-6.15A7.64,7.64,0,0,0,620.7,363a6.82,6.82,0,0,0-2.7-1.7,10.16,10.16,0,0,0-3.2-.5q-4.6,0-7,2.75c-1.64,1.83-2.45,4.45-2.45,7.85v27.4H587.2Z"/><path class="cls-1" d="M692,356.56h38.9a109.1,109.1,0,0,1-.5,10.9,38.93,38.93,0,0,1-2,9.1A36.32,36.32,0,0,1,722.7,387a33.57,33.57,0,0,1-8.45,7.6,40.12,40.12,0,0,1-10.65,4.65,46,46,0,0,1-12.2,1.6,42.89,42.89,0,0,1-16-2.9,36,36,0,0,1-12.45-8.15,36.81,36.81,0,0,1-8.1-12.6A43.79,43.79,0,0,1,651.9,361a44.3,44.3,0,0,1,2.85-16.15,35.47,35.47,0,0,1,8.1-12.55,36.65,36.65,0,0,1,12.65-8.1,44.93,44.93,0,0,1,16.5-2.9,40.94,40.94,0,0,1,20.7,5.1q8.89,5.1,14.09,15.8l-18.59,7.7q-2.61-6.19-6.75-8.9a17,17,0,0,0-9.45-2.7,19,19,0,0,0-8,1.65,17.38,17.38,0,0,0-6.15,4.7,22.37,22.37,0,0,0-4,7.35,32.41,32.41,0,0,0-.2,18.5,20,20,0,0,0,3.75,7.1,16.83,16.83,0,0,0,6.2,4.65,20.91,20.91,0,0,0,8.6,1.65,23.89,23.89,0,0,0,5.59-.65,14.66,14.66,0,0,0,4.86-2.1,12.14,12.14,0,0,0,3.55-3.75,15.16,15.16,0,0,0,1.9-5.6H692Z"/><path class="cls-1" d="M741.59,347.46h18.1v8.4a20.79,20.79,0,0,1,7.1-7.05,19.14,19.14,0,0,1,9.8-2.45h1.55a11.31,11.31,0,0,1,2,.2v17.3a17.2,17.2,0,0,0-7.8-1.8q-6.3,0-9.45,3.75t-3.15,10.95v22h-18.1Z"/><path class="cls-1" d="M837.59,376.06a11.63,11.63,0,0,0,3.15,8.45,11.22,11.22,0,0,0,8.45,3.25q6.21,0,8.3-4.8h17.6a22.67,22.67,0,0,1-9.3,12.85q-6.9,4.65-17.2,4.65-15.39,0-20.3-10-8,9.71-21,9.7a30.58,30.58,0,0,1-8.6-1.15,20.47,20.47,0,0,1-6.7-3.3,15.3,15.3,0,0,1-4.35-5.2,14.94,14.94,0,0,1-1.55-6.85,15.42,15.42,0,0,1,5.85-12.4,19.25,19.25,0,0,1,6.7-3.35,31.15,31.15,0,0,1,8.75-1.15,36.2,36.2,0,0,1,13.2,2.7v-1.4q0-9.19-12.4-9.2-4.8,0-14.1,2.9v-13.7a54.09,54.09,0,0,1,15.1-2.4q7.11,0,11.5,2.15a19.39,19.39,0,0,1,7.6,6.95q6.4-9.11,19.6-9.1,13.71,0,20.85,7.75t7.15,22.65Zm-33.8,6.3a5,5,0,0,0,2.2,4.2,9.82,9.82,0,0,0,5.9,1.6,12.35,12.35,0,0,0,6.4-1.65q2.81-1.65,2.8-4.05t-2.85-3.9a13.54,13.54,0,0,0-6.75-1.6,9.67,9.67,0,0,0-5.6,1.45A4.56,4.56,0,0,0,803.79,382.36Zm55.2-16.8q-2.4-8.4-10.5-8.4-7.69,0-10.4,8.4Z"/><path class="cls-1" d="M886.19,347.46h18.1V354a19.83,19.83,0,0,1,7.5-6,23.55,23.55,0,0,1,8.9-1.55,22.16,22.16,0,0,1,9.25,1.75,18.5,18.5,0,0,1,6.55,4.95,14.14,14.14,0,0,1,3,5.8,29.88,29.88,0,0,1,.8,7.3v32.6h-18.1v-25.9a27.72,27.72,0,0,0-.55-6.15,7.49,7.49,0,0,0-1.95-3.75,6.82,6.82,0,0,0-2.7-1.7,10.12,10.12,0,0,0-3.2-.5,9,9,0,0,0-7,2.75q-2.44,2.75-2.45,7.85v27.4h-18.1Z"/><path class="cls-1" d="M986.59,360.66a21.18,21.18,0,0,0-9.8-2.6,7.32,7.32,0,0,0-4,1,3.09,3.09,0,0,0-1.55,2.7,3.5,3.5,0,0,0,.25,1.45,2.54,2.54,0,0,0,1.1,1.05,9.84,9.84,0,0,0,2.5.9c1.1.27,2.55.6,4.35,1q7.5,1.5,11.2,5.35a13.62,13.62,0,0,1,3.7,9.85,17.86,17.86,0,0,1-1.8,8.1,17.23,17.23,0,0,1-5,6.05,23.8,23.8,0,0,1-7.7,3.8,34.35,34.35,0,0,1-9.9,1.35,40.26,40.26,0,0,1-20.5-5.9L956,382q7.6,5.21,14.4,5.2a7.11,7.11,0,0,0,4.1-1.1,3.28,3.28,0,0,0,1.6-2.8,4.55,4.55,0,0,0-.25-1.65,2.77,2.77,0,0,0-1.05-1.2,8.27,8.27,0,0,0-2.35-1c-1-.3-2.38-.62-4.05-1q-8.4-1.69-11.75-5t-3.35-9.25a18.15,18.15,0,0,1,1.6-7.75,16.08,16.08,0,0,1,4.6-5.85,21.66,21.66,0,0,1,7.25-3.7,32.08,32.08,0,0,1,9.45-1.3,42.85,42.85,0,0,1,16.5,3.3Z"/><path class="cls-1" d="M1019.79,376.16q0,11.7,11,11.7a9.83,9.83,0,0,0,8.9-4.8h17.5q-5.3,17.6-26.5,17.6a34.83,34.83,0,0,1-11.9-2,26.59,26.59,0,0,1-9.25-5.55,24.72,24.72,0,0,1-5.95-8.6,28.66,28.66,0,0,1-2.1-11.2,31.73,31.73,0,0,1,2-11.55,24.23,24.23,0,0,1,5.7-8.75,25.28,25.28,0,0,1,8.95-5.55,33.85,33.85,0,0,1,11.85-1.95,33.16,33.16,0,0,1,11.7,1.95,23.61,23.61,0,0,1,8.8,5.65,24.6,24.6,0,0,1,5.5,9,35.76,35.76,0,0,1,1.9,12.05v1.9Zm21.2-10.5a10.87,10.87,0,0,0-3.7-6.1,11.48,11.48,0,0,0-13.65-.1,10,10,0,0,0-3.35,6.2Z"/></g><g class="cls-8"><g class="cls-8"><path class="cls-9" d="M69.76,84.15a9.5,9.5,0,0,0-1.7,1c-1.9,1.2-3.8,2.5-5.8,3.8-.2.1-.3.3-.5.2s-.2-.3-.2-.5v-7.6c0-.6-.2-.7-.9-.7H55c-2.3,0-4-1.5-4-3.5,0-9.3.1-18.6,0-27.9,0-2.4,2-3.9,4.5-3.9h119.3c2.4,0,4.1,1.4,4.1,3.5v28.2c0,1.8-1.1,2.9-3.3,3.5H76.06a2.6,2.6,0,0,0-1.5.4c-1,.7-2,1.3-3,2-.4.5-1.3.8-1.8,1.5"/><path class="cls-10" d="M69.76,84.15c.5-.7,1.4-1,2-1.5,1-.7,2-1.3,3-2a2.82,2.82,0,0,1,1.5-.4h99.5c.2.4.8.3,1.1.6a3.22,3.22,0,0,1,1.9,3v28c0,2-1.6,3.8-4.4,3.8H95.16a3.38,3.38,0,0,0-2,.6c-3.3,2.2-6.6,4.4-9.9,6.5-.8.5-1.5,1-2.3,1.5-.5.3-.6.2-.6-.3v-7.3c0-1,0-1-1.1-1h-5.1a3.92,3.92,0,0,1-4.3-3.7V85a2.81,2.81,0,0,1-.1-.8"/><path class="cls-7" d="M73.06,71.75h-5.5V53.55h8.8a8.2,8.2,0,0,1,5.5,1.6,5.55,5.55,0,0,1,1.9,4.5,5.55,5.55,0,0,1-1.9,4.5,8.2,8.2,0,0,1-5.5,1.6h-3.3Zm0-9.9h1.8c2,0,3-.8,3-2.3s-1-2.3-3-2.3h-1.8Z"/><path class="cls-7" d="M103.16,71.75h-6.9l-5.3-7v7h-5.5V53.55h8.6a9.72,9.72,0,0,1,3.1.4,6.6,6.6,0,0,1,2.2,1.2,4.63,4.63,0,0,1,1.3,1.8,5.38,5.38,0,0,1,.4,2.2,4.87,4.87,0,0,1-1.2,3.4,6.52,6.52,0,0,1-3.4,1.8Zm-12.1-10.1h1a4.4,4.4,0,0,0,2.5-.6,1.85,1.85,0,0,0,.9-1.7,2,2,0,0,0-.9-1.7,4.4,4.4,0,0,0-2.5-.6h-1Z"/><rect class="cls-7" x="104.86" y="53.55" width="5.5" height="18.2"/><polygon class="cls-7" points="117.96 53.55 123.06 64.65 128.26 53.55 134.26 53.55 125.26 71.75 120.86 71.75 111.96 53.55 117.96 53.55"/><path class="cls-7" d="M146.26,68.75h-7.9l-1.3,3.1h-5.9l8.1-18.2h6l8.1,18.2h-5.9Zm-1.5-3.6-2.5-6.1-2.5,6.1Z"/><polygon class="cls-7" points="161.56 57.65 161.56 71.85 156.06 71.85 156.06 57.65 151.46 57.65 151.46 53.65 166.06 53.65 166.06 57.65 161.56 57.65"/><path class="cls-7" d="M97.76,93.25a7.57,7.57,0,0,0-1.8-.9,5.55,5.55,0,0,0-1.7-.3,2.86,2.86,0,0,0-1.7.4,1.51,1.51,0,0,0-.7,1.1,1.14,1.14,0,0,0,.3.8,1.93,1.93,0,0,0,.9.5,5.64,5.64,0,0,0,1.2.4,7.37,7.37,0,0,1,1.4.4,8,8,0,0,1,3.9,2.1,4.87,4.87,0,0,1,1.2,3.4,6.55,6.55,0,0,1-.5,2.5,4.94,4.94,0,0,1-1.6,1.9,9,9,0,0,1-2.6,1.3,12.48,12.48,0,0,1-3.5.4,14.39,14.39,0,0,1-7.4-2l2.4-3.8a10,10,0,0,0,2.4,1.4,6.87,6.87,0,0,0,2.4.5,3.44,3.44,0,0,0,2-.5,1.91,1.91,0,0,0,.7-1.2,1.45,1.45,0,0,0-.2-.7,1.7,1.7,0,0,0-.6-.6,9.29,9.29,0,0,0-1-.5c-.4-.1-.9-.3-1.5-.5l-2.1-.6a5.08,5.08,0,0,1-1.8-.9,4.71,4.71,0,0,1-1.3-1.5,4.77,4.77,0,0,1-.5-2.2,6,6,0,0,1,.5-2.4,4.54,4.54,0,0,1,1.5-1.9,7.14,7.14,0,0,1,2.3-1.2,9.48,9.48,0,0,1,3-.4,13.47,13.47,0,0,1,3.3.4,14.22,14.22,0,0,1,3.3,1.1Z"/><polygon class="cls-7" points="102.86 106.75 102.86 88.65 108.36 88.65 118.56 99.75 118.56 88.65 124.06 88.65 124.06 106.75 118.56 106.75 108.36 95.65 108.36 106.75 102.86 106.75"/><path class="cls-7" d="M140.06,103.65h-7.9l-1.3,3.2H125l8.1-18.2h6l8.1,18.2h-5.9Zm-1.4-3.6-2.5-6-2.5,6Z"/><polygon class="cls-7" points="153.76 96.05 160.46 88.65 167.26 88.65 158.86 97.25 168.06 106.75 160.96 106.75 153.76 98.85 153.76 106.75 148.26 106.75 148.26 88.65 153.76 88.65 153.76 96.05"/></g></g><rect class="cls-1" x="451.75" y="511" width="443" height="130"/></svg>