<svg id="Layer_1" data-name="Layer 1" xmlns="http://www.w3.org/2000/svg" xmlns:xlink="http://www.w3.org/1999/xlink" viewBox="0 0 2081.64 768"><defs><style>.cls-1{fill:none;}.cls-2{fill:#fbb03b;}.cls-3{fill:#333;}.cls-11,.cls-12,.cls-13,.cls-14,.cls-4{font-size:100px;}.cls-10,.cls-4,.cls-8{fill:#fff;}.cls-10,.cls-4,.cls-9{stroke:#000;stroke-miterlimit:10;}.cls-10,.cls-14,.cls-4{font-family:Futura-Bold, Futura;font-weight:700;}.cls-5{clip-path:url(#clip-path);}.cls-6{fill:#1f2733;}.cls-7{fill:#da8e38;}.cls-9{fill:#f7931e;}.cls-10{font-size:72px;}.cls-11{letter-spacing:0.01em;}.cls-13{letter-spacing:0.02em;}.cls-15{letter-spacing:0.01em;}.cls-16{letter-spacing:0em;}</style><clipPath id="clip-path"><rect class="cls-1" x="588" y="23" width="168" height="109"/></clipPath></defs><title>startside_sex&amp;amp;samfund</title><rect class="cls-2" x="0.5" y="368.5" width="1365" height="399"/><path d="M1365,369V767H1V369H1365m1-1H0V768H1366V368Z"/><rect class="cls-3" x="0.5" y="0.5" width="1365" height="367"/><path d="M1365,1V367H1V1H1365m1-1H0V368H1366V0Z"/><text class="cls-4"><tspan x="345" y="398.76" xml:space="preserve"> #MinGrænse</tspan></text><g class="cls-5"><g class="cls-5"><path class="cls-6" d="M625.73,79.28a6.53,6.53,0,0,0-1.69,1c-1.93,1.24-3.83,2.51-5.75,3.77-.15.1-.29.29-.51.21s-.16-.33-.16-.51c0-2.55,0-5.1,0-7.65,0-.59-.21-.71-.85-.7-1.89,0-3.78,0-5.66,0-2.29,0-4-1.51-4-3.47,0-9.31.06-18.62,0-27.93,0-2.37,2-3.85,4.49-3.85q59.65.06,119.29,0c2.45,0,4.11,1.42,4.11,3.54q0,14.09,0,28.18c0,1.76-1.08,2.92-3.26,3.47l-1.28,0h-98.2a2.4,2.4,0,0,0-1.52.41c-1,.69-2,1.28-3,2a8.71,8.71,0,0,0-2,1.49"/><path class="cls-7" d="M625.73,79.28a8.71,8.71,0,0,1,2-1.49c1-.69,2-1.28,3-2a2.4,2.4,0,0,1,1.52-.41h98.2l1.28,0c.24.4.77.35,1.14.56a3.25,3.25,0,0,1,1.9,3c0,9.33,0,18.66,0,28,0,2-1.64,3.76-4.38,3.76q-29.13,0-58.25,0c-7,0-14,0-21.05,0a3.49,3.49,0,0,0-2,.61c-3.28,2.19-6.58,4.36-9.88,6.54-.75.5-1.53,1-2.29,1.46-.47.31-.64.2-.64-.29q0-3.66,0-7.32c0-1,0-1-1.13-1-1.71,0-3.42,0-5.13,0a3.89,3.89,0,0,1-4.28-3.71c0-9,0-18,0-27,0-.22,0-.43,0-.65"/><path class="cls-8" d="M629,66.89h-5.52V48.67h8.78a8.27,8.27,0,0,1,5.48,1.6,5.55,5.55,0,0,1,1.9,4.49,5.58,5.58,0,0,1-1.9,4.5,8.33,8.33,0,0,1-5.48,1.59H629ZM629,57h1.83c2,0,3-.75,3-2.27s-1-2.27-3-2.27H629Z"/><path class="cls-8" d="M659.1,66.89h-6.86l-5.27-7v7h-5.51V48.67H650a9.65,9.65,0,0,1,3.1.45,6.11,6.11,0,0,1,2.18,1.22,5.12,5.12,0,0,1,1.29,1.79,5.47,5.47,0,0,1,.44,2.17,4.82,4.82,0,0,1-1.17,3.37,6.11,6.11,0,0,1-3.45,1.76ZM647,56.82h1a4.57,4.57,0,0,0,2.5-.58,2,2,0,0,0,0-3.34,4.57,4.57,0,0,0-2.5-.58h-1Z"/><rect class="cls-8" x="660.79" y="48.67" width="5.52" height="18.22"/><polygon class="cls-8" points="673.9 48.67 679.02 59.77 684.17 48.67 690.16 48.67 681.21 66.89 676.82 66.89 667.9 48.67 673.9 48.67"/><path class="cls-8" d="M702.17,63.86h-7.88L693,67h-5.88l8.08-18.22h6L709.32,67h-5.88Zm-1.46-3.6-2.48-6.07-2.48,6.07Z"/><polygon class="cls-8" points="717.48 52.81 717.48 67.02 711.96 67.02 711.96 52.81 707.43 52.81 707.43 48.8 722.01 48.8 722.01 52.81 717.48 52.81"/><path class="cls-8" d="M653.7,88.4a7,7,0,0,0-1.8-.93,5.49,5.49,0,0,0-1.74-.3,3.16,3.16,0,0,0-1.74.44,1.29,1.29,0,0,0-.67,1.13,1,1,0,0,0,.33.79,3.15,3.15,0,0,0,.89.55,8.11,8.11,0,0,0,1.23.39l1.36.37a8.8,8.8,0,0,1,4,2.06,4.64,4.64,0,0,1,1.25,3.36,5.83,5.83,0,0,1-.55,2.53,5.5,5.5,0,0,1-1.6,1.94A7.76,7.76,0,0,1,652,102a12.32,12.32,0,0,1-3.47.45,14.3,14.3,0,0,1-7.44-2.05l2.36-3.81a9.89,9.89,0,0,0,2.44,1.4,6.84,6.84,0,0,0,2.39.46,3.16,3.16,0,0,0,2-.53,1.55,1.55,0,0,0,.66-1.21,1.46,1.46,0,0,0-.16-.71,1.59,1.59,0,0,0-.57-.55,4.45,4.45,0,0,0-1-.47c-.42-.15-.93-.31-1.53-.49s-1.41-.4-2.09-.63a7.49,7.49,0,0,1-1.83-.93,4.53,4.53,0,0,1-1.29-1.46,4.63,4.63,0,0,1-.49-2.23,5.78,5.78,0,0,1,.52-2.45A5.43,5.43,0,0,1,644,84.9a6.64,6.64,0,0,1,2.3-1.22,10,10,0,0,1,3.05-.44,15.3,15.3,0,0,1,3.28.38,16.28,16.28,0,0,1,3.29,1.09Z"/><polygon class="cls-8" points="658.83 101.92 658.83 83.75 664.33 83.75 674.49 94.86 674.49 83.75 679.97 83.75 679.97 101.92 674.49 101.92 664.33 90.81 664.33 101.92 658.83 101.92"/><path class="cls-8" d="M696.05,98.76h-7.86l-1.26,3.16h-5.87l8.05-18.17h6l8.06,18.17h-5.87Zm-1.46-3.59-2.47-6-2.47,6Z"/><polygon class="cls-8" points="709.71 91.25 716.42 83.75 723.21 83.75 714.82 92.35 724 101.92 716.87 101.92 709.71 94.04 709.71 101.92 704.21 101.92 704.21 83.75 709.71 83.75 709.71 91.25"/></g></g><rect class="cls-9" x="495.5" y="493.5" width="450" height="150"/><text class="cls-10" transform="translate(483 594)"><tspan xml:space="preserve">    </tspan><tspan class="cls-11" x="97.92" y="0">St</tspan><tspan class="cls-12" x="201.82" y="0">a</tspan><tspan class="cls-13" x="271.91" y="0">r</tspan><tspan class="cls-12" x="320.41" y="0">t</tspan></text><text class="cls-14" transform="translate(1395.75 576.49)">Lo<tspan class="cls-15" x="123.2" y="0">r</tspan><tspan class="cls-16" x="170.4" y="0">em ipsum</tspan></text></svg>